<svg xmlns="http://www.w3.org/2000/svg" width="20" height="20" viewBox="0 0 20 20" fill="none">
  <path d="M11.25 18.2402C15.2594 17.6371 18.3333 14.1775 18.3333 9.99996C18.3333 5.39759 14.6024 1.66663 9.99999 1.66663C5.39762 1.66663 1.66666 5.39759 1.66666 9.99996C1.66666 14.1775 4.7406 17.6371 8.74999 18.2402V12.5H7.49999C6.80963 12.5 6.24999 11.9403 6.24999 11.25C6.24999 10.5596 6.80963 9.99996 7.49999 9.99996H8.74999V8.33329C8.74999 6.72246 10.0558 5.41663 11.6667 5.41663H12.0833C12.7737 5.41663 13.3333 5.97627 13.3333 6.66663C13.3333 7.35698 12.7737 7.91663 12.0833 7.91663H11.6667C11.4365 7.91663 11.25 8.10317 11.25 8.33329V9.99996H12.5C13.1903 9.99996 13.75 10.5596 13.75 11.25C13.75 11.9403 13.1903 12.5 12.5 12.5H11.25V18.2402Z" fill="#7C7C7C"/>
</svg>