<svg xmlns="http://www.w3.org/2000/svg" width="20" height="20" viewBox="0 0 20 20" fill="none">
  <path d="M10 8.33333C9.07953 8.33333 8.33333 9.07953 8.33333 10C8.33333 10.9205 9.07953 11.6667 10 11.6667C10.9205 11.6667 11.6667 10.9205 11.6667 10C11.6667 9.07953 10.9205 8.33333 10 8.33333Z" fill="#7C7C7C"/>
  <path fill-rule="evenodd" clip-rule="evenodd" d="M2.5 6.66667C2.5 4.36548 4.36548 2.5 6.66667 2.5H13.3333C15.6345 2.5 17.5 4.36548 17.5 6.66667V13.3333C17.5 15.6345 15.6345 17.5 13.3333 17.5H6.66667C4.36548 17.5 2.5 15.6345 2.5 13.3333V6.66667ZM6.66667 10C6.66667 8.15905 8.15905 6.66667 10 6.66667C11.8409 6.66667 13.3333 8.15905 13.3333 10C13.3333 11.8409 11.8409 13.3333 10 13.3333C8.15905 13.3333 6.66667 11.8409 6.66667 10ZM13.75 7.08333C14.2102 7.08333 14.5833 6.71024 14.5833 6.25C14.5833 5.78976 14.2102 5.41667 13.75 5.41667C13.2898 5.41667 12.9167 5.78976 12.9167 6.25C12.9167 6.71024 13.2898 7.08333 13.75 7.08333Z" fill="#7C7C7C"/>
</svg>