<svg xmlns="http://www.w3.org/2000/svg" width="20" height="20" viewBox="0 0 20 20" fill="none">
  <g clip-path="url(#clip0_5_278)">
    <path d="M11.7154 2.84157C10.2096 3.48074 9.21956 4.88574 9.16873 6.49157L9.16706 6.64324L8.96456 6.62407C6.97123 6.39991 5.21623 5.36407 4.01123 3.68157C3.92963 3.56755 3.82058 3.47595 3.69418 3.41527C3.56777 3.35458 3.4281 3.32678 3.28809 3.33442C3.14809 3.34207 3.01227 3.38491 2.89323 3.459C2.77418 3.53308 2.67575 3.63601 2.60706 3.75824L2.52623 3.91324L2.48539 3.99574C1.88623 5.23324 1.49373 6.73741 1.63789 8.33157L1.66289 8.55907C1.89873 10.4449 2.91289 12.0716 4.81206 13.2916L4.95623 13.3807L4.88873 13.4166C3.79289 13.9691 2.79039 14.2099 1.69956 14.1666C0.819559 14.1332 0.494559 15.3099 1.26789 15.7316C4.26623 17.3657 7.48539 17.8699 10.2612 17.0649C13.6446 16.0816 16.2212 13.5457 17.2071 10.0374L17.3129 9.62491C17.5112 8.79741 17.6229 7.95324 17.6471 7.10491L17.6496 6.82824L17.9771 6.17907L18.3437 5.46074L18.5221 5.09907L18.6204 4.89324C18.8412 4.42241 19.0004 4.03241 19.0987 3.70157L19.1104 3.65491L19.1171 3.63991C19.3004 3.14574 18.9787 2.50824 18.3329 2.50824L18.2312 2.51407C18.1654 2.52217 18.1008 2.53811 18.0387 2.56157L17.9671 2.59324C17.7292 2.70873 17.4843 2.80894 17.2337 2.89324L16.9371 2.98907L16.7112 3.05574L16.0679 3.23407C14.9546 2.30241 13.4479 2.18907 11.8912 2.77241L11.7154 2.84157Z" fill="#7C7C7C"/>
  </g>
  <defs>
    <clipPath id="clip0_5_278">
      <rect width="20" height="20" fill="white"/>
    </clipPath>
  </defs>
</svg>