<svg xmlns="http://www.w3.org/2000/svg" width="20" height="20" viewBox="0 0 20 20" fill="none">
  <path fill-rule="evenodd" clip-rule="evenodd" d="M10 3.33337C8.14663 3.33337 6.17607 3.45967 4.77627 3.57326C3.24461 3.69756 2.01369 4.88289 1.86392 6.42595C1.7638 7.45738 1.66669 8.77171 1.66669 10C1.66669 11.2284 1.7638 12.5427 1.86392 13.5741C2.01369 15.1172 3.24461 16.3025 4.77627 16.4268C6.17607 16.5404 8.14663 16.6667 10 16.6667C11.8534 16.6667 13.824 16.5404 15.2238 16.4268C16.7554 16.3025 17.9864 15.1172 18.1361 13.5741C18.2362 12.5427 18.3334 11.2284 18.3334 10C18.3334 8.77171 18.2362 7.45738 18.1361 6.42595C17.9864 4.88289 16.7554 3.69756 15.2238 3.57326C13.824 3.45967 11.8534 3.33337 10 3.33337ZM9.08335 12.4538L12.5834 10.4331C12.9167 10.2406 12.9167 9.75948 12.5834 9.56703L9.08335 7.5463C8.75002 7.35385 8.33335 7.59441 8.33335 7.97931L8.33335 12.0208C8.33335 12.4057 8.75002 12.6462 9.08335 12.4538Z" fill="#7C7C7C"/>
</svg>