<svg xmlns="http://www.w3.org/2000/svg" width="20" height="20" viewBox="0 0 20 20" fill="none">
  <path fill-rule="evenodd" clip-rule="evenodd" d="M5.83333 2.5C4.94928 2.5 4.10143 2.85119 3.47631 3.47631C2.85119 4.10143 2.5 4.94928 2.5 5.83333V14.1667C2.5 15.0507 2.85119 15.8986 3.47631 16.5237C4.10143 17.1488 4.94928 17.5 5.83333 17.5H14.1667C15.0507 17.5 15.8986 17.1488 16.5237 16.5237C17.1488 15.8986 17.5 15.0507 17.5 14.1667V5.83333C17.5 4.94928 17.1488 4.10143 16.5237 3.47631C15.8986 2.85119 15.0507 2.5 14.1667 2.5H5.83333ZM14.4433 8.37917C14.566 8.19528 14.6106 7.9702 14.5673 7.75344C14.524 7.53668 14.3964 7.346 14.2125 7.22333C14.0286 7.10067 13.8035 7.05608 13.5868 7.09937C13.37 7.14266 13.1793 7.27028 13.0567 7.45417C12.7617 7.84583 12.4525 8.22083 12.0908 8.55417C11.6717 8.94083 11.2475 9.23083 10.8342 9.4025L10.8275 7.81917C10.8036 7.61646 10.7062 7.42956 10.5536 7.29393C10.4011 7.1583 10.2041 7.08336 10 7.08333C9.54833 7.10917 9.16667 7.4425 9.16667 7.91667V11.5608C7.54333 11.1108 6.66667 9.53583 6.66667 7.91667C6.66667 7.69565 6.57887 7.48369 6.42259 7.32741C6.26631 7.17113 6.05435 7.08333 5.83333 7.08333C5.61232 7.08333 5.40036 7.17113 5.24408 7.32741C5.0878 7.48369 5 7.69565 5 7.91667C5 10.9433 7.09167 13.3333 10 13.3333C10.221 13.3333 10.433 13.2455 10.5893 13.0893C10.7455 12.933 10.8333 12.721 10.8333 12.5V11.1975C11.9433 11.2858 13.02 12.07 13.4217 12.8725C13.4685 12.9738 13.5351 13.0647 13.6177 13.1398C13.7003 13.2148 13.7972 13.2725 13.9025 13.3094C14.0078 13.3464 14.1195 13.3618 14.2308 13.3547C14.3422 13.3477 14.451 13.3183 14.5509 13.2684C14.6507 13.2185 14.7395 13.149 14.8119 13.0642C14.8844 12.9793 14.9391 12.8807 14.9727 12.7743C15.0064 12.6679 15.0183 12.5558 15.0078 12.4447C14.9973 12.3336 14.9646 12.2257 14.9117 12.1275C14.5133 11.33 13.77 10.5842 12.855 10.0975C12.9783 9.99667 13.1008 9.89 13.2217 9.77917C13.6808 9.36046 14.0907 8.89076 14.4433 8.37917Z" fill="#7C7C7C"/>
</svg>