<svg xmlns="http://www.w3.org/2000/svg" width="20" height="20" viewBox="0 0 20 20" fill="none">
  <path fill-rule="evenodd" clip-rule="evenodd" d="M6.66669 2.5C6.88771 2.5 7.09967 2.5878 7.25595 2.74408C7.41223 2.90036 7.50003 3.11232 7.50003 3.33333C7.50003 3.55435 7.41223 3.76631 7.25595 3.92259C7.09967 4.07887 6.88771 4.16667 6.66669 4.16667H6.24003C6.06075 4.16665 5.88625 4.22446 5.74243 4.3315C5.59861 4.43853 5.49315 4.5891 5.44169 4.76083L3.75336 10.3883C4.23079 10.1523 4.75299 10.0207 5.28524 10.0021C5.81749 9.98358 6.34759 10.0786 6.84029 10.2808C7.33298 10.483 7.77698 10.7878 8.14276 11.1748C8.50853 11.5619 8.7877 12.0225 8.96169 12.5258C9.02836 12.5092 9.09586 12.5 9.16669 12.5H10.8334C10.9042 12.5 10.9725 12.5083 11.0375 12.525C11.2116 12.0217 11.4908 11.5613 11.8567 11.1743C12.2225 10.7873 12.6665 10.4826 13.1592 10.2804C13.6518 10.0783 14.1819 9.98341 14.7141 10.002C15.2463 10.0206 15.7685 10.1523 16.2459 10.3883L14.5584 4.76083C14.5069 4.5891 14.4014 4.43853 14.2576 4.3315C14.1138 4.22446 13.9393 4.16665 13.76 4.16667H13.3334C13.1123 4.16667 12.9004 4.07887 12.7441 3.92259C12.5878 3.76631 12.5 3.55435 12.5 3.33333C12.5 3.11232 12.5878 2.90036 12.7441 2.74408C12.9004 2.5878 13.1123 2.5 13.3334 2.5H13.76C14.2976 2.50009 14.8209 2.67346 15.2521 2.9944C15.6834 3.31534 15.9997 3.76675 16.1542 4.28167L18.0167 10.49C18.2266 11.1891 18.3332 11.9151 18.3334 12.645V13.75C18.335 14.7096 17.9688 15.6333 17.31 16.331C16.6513 17.0287 15.7501 17.4473 14.792 17.5007C13.8339 17.5541 12.8918 17.2382 12.1596 16.618C11.4274 15.9978 10.9608 15.1205 10.8559 14.1667H9.14419C9.03925 15.1205 8.57265 15.9978 7.84045 16.618C7.10824 17.2382 6.16614 17.5541 5.20805 17.5007C4.24996 17.4473 3.34879 17.0287 2.69002 16.331C2.03126 15.6333 1.66502 14.7096 1.66669 13.75V12.645C1.66682 11.9151 1.7735 11.1891 1.98336 10.49L3.84586 4.28167C4.00033 3.76675 4.31666 3.31534 4.74793 2.9944C5.1792 2.67346 5.70244 2.50009 6.24003 2.5H6.66669ZM14.5834 11.6667C14.0308 11.6667 13.5009 11.8862 13.1102 12.2769C12.7195 12.6676 12.5 13.1975 12.5 13.75C12.5 14.3025 12.7195 14.8324 13.1102 15.2231C13.5009 15.6138 14.0308 15.8333 14.5834 15.8333C15.1359 15.8333 15.6658 15.6138 16.0565 15.2231C16.4472 14.8324 16.6667 14.3025 16.6667 13.75C16.6667 13.1975 16.4472 12.6676 16.0565 12.2769C15.6658 11.8862 15.1359 11.6667 14.5834 11.6667ZM5.41669 11.6667C4.86416 11.6667 4.33425 11.8862 3.94355 12.2769C3.55285 12.6676 3.33336 13.1975 3.33336 13.75C3.33336 14.3025 3.55285 14.8324 3.94355 15.2231C4.33425 15.6138 4.86416 15.8333 5.41669 15.8333C5.96923 15.8333 6.49913 15.6138 6.88983 15.2231C7.28053 14.8324 7.50003 14.3025 7.50003 13.75C7.50003 13.1975 7.28053 12.6676 6.88983 12.2769C6.49913 11.8862 5.96923 11.6667 5.41669 11.6667Z" fill="#355DEE"/>
</svg>