<svg xmlns="http://www.w3.org/2000/svg" width="28" height="28" viewBox="0 0 28 28" fill="none">
  <path d="M24.5 5.83329C24.5 5.18896 23.9777 4.66663 23.3333 4.66663H4.66667C4.02234 4.66663 3.5 5.18896 3.5 5.83329C3.5 6.47762 4.02234 6.99996 4.66667 6.99996H23.3333C23.9777 6.99996 24.5 6.47762 24.5 5.83329Z" fill="#7C7C7C"/>
  <path d="M24.5 14C24.5 13.3556 23.9777 12.8333 23.3333 12.8333H4.66667C4.02234 12.8333 3.5 13.3556 3.5 14C3.5 14.6443 4.02234 15.1666 4.66667 15.1666H23.3333C23.9777 15.1666 24.5 14.6443 24.5 14Z" fill="#7C7C7C"/>
  <path d="M23.3333 21C23.9777 21 24.5 21.5223 24.5 22.1666C24.5 22.811 23.9777 23.3333 23.3333 23.3333H4.66667C4.02234 23.3333 3.5 22.811 3.5 22.1666C3.5 21.5223 4.02234 21 4.66667 21H23.3333Z" fill="#7C7C7C"/>
</svg>