<svg xmlns="http://www.w3.org/2000/svg" width="16" height="16" viewBox="0 0 16 16" fill="none">
  <path fill-rule="evenodd" clip-rule="evenodd" d="M7 1.33337C3.87039 1.33337 1.33333 3.87043 1.33333 7.00004C1.33333 10.1297 3.87039 12.6667 7 12.6667C8.3246 12.6667 9.54304 12.2122 10.5079 11.4507L12.9428 13.8856C13.2031 14.1459 13.6253 14.1459 13.8856 13.8856C14.146 13.6252 14.146 13.2031 13.8856 12.9428L11.4507 10.5079C12.2122 9.54302 12.6667 8.3246 12.6667 7.00004C12.6667 3.87043 10.1296 1.33337 7 1.33337ZM2.66667 7.00004C2.66667 4.60681 4.60677 2.66671 7 2.66671C9.39323 2.66671 11.3333 4.60681 11.3333 7.00004C11.3333 9.39327 9.39323 11.3334 7 11.3334C4.60677 11.3334 2.66667 9.39327 2.66667 7.00004Z" fill="#355DEE"/>
</svg>