<svg xmlns="http://www.w3.org/2000/svg" width="24" height="24" viewBox="0 0 24 24" fill="none">
  <path fill-rule="evenodd" clip-rule="evenodd" d="M21.8393 6.05639C22.0314 4.8917 20.8651 3.97177 19.7772 4.42984L2.67694 11.63C1.48451 12.132 1.42341 13.8558 2.67779 14.3758C3.60587 14.7605 5.02624 15.3246 6.45076 15.7943C7.61922 16.1795 8.893 16.5371 9.91343 16.6383C10.1928 16.9725 10.5444 17.2935 10.9016 17.5872C11.4486 18.0371 12.1073 18.5012 12.7872 18.9455C14.1488 19.8352 15.6596 20.6865 16.6779 21.2396C17.8948 21.9006 19.3516 21.1395 19.5704 19.8131L21.8393 6.05639ZM4.59476 12.9925L19.7186 6.62459L17.6008 19.4649C16.6023 18.9219 15.1629 18.1087 13.8812 17.2713C13.2328 16.8475 12.6406 16.4279 12.1719 16.0425C12.005 15.9052 11.8637 15.7802 11.746 15.6683L15.7071 11.7071C16.0976 11.3166 16.0976 10.6834 15.7071 10.2929C15.3166 9.90237 14.6834 9.90237 14.2929 10.2929L9.95467 14.6311C9.22123 14.5373 8.19879 14.2647 7.077 13.8949C6.21368 13.6102 5.34564 13.2869 4.59476 12.9925Z" fill="#191919"/>
</svg>