<svg xmlns="http://www.w3.org/2000/svg" width="24" height="24" viewBox="0 0 24 24" fill="none">
  <path d="M11.2071 9.79289C10.8166 9.40237 10.1834 9.40237 9.79289 9.79289L6.79289 12.7929C6.40237 13.1834 6.40237 13.8166 6.79289 14.2071C7.18342 14.5976 7.81658 14.5976 8.20711 14.2071L10.5 11.9142L12.7929 14.2071C13.1834 14.5976 13.8166 14.5976 14.2071 14.2071L17.2071 11.2071C17.5976 10.8166 17.5976 10.1834 17.2071 9.79289C16.8166 9.40237 16.1834 9.40237 15.7929 9.79289L13.5 12.0858L11.2071 9.79289Z" fill="#191919"/>
  <path fill-rule="evenodd" clip-rule="evenodd" d="M12 2C6.47715 2 2 6.47715 2 12C2 13.8896 2.52505 15.6594 3.43756 17.1683L2.54581 20.2002C2.32023 20.9672 3.03284 21.6798 3.79975 21.4542L6.83171 20.5624C8.34058 21.475 10.1104 22 12 22C17.5228 22 22 17.5228 22 12C22 6.47715 17.5228 2 12 2ZM4 12C4 7.58172 7.58172 4 12 4C16.4183 4 20 7.58172 20 12C20 16.4183 16.4183 20 12 20C10.4231 20 8.95564 19.5448 7.71817 18.759C7.36114 18.5323 6.91075 18.4545 6.47827 18.5817L4.97667 19.0233L5.41832 17.5217C5.54552 17.0892 5.46769 16.6389 5.24098 16.2818C4.4552 15.0444 4 13.5769 4 12Z" fill="#191919"/>
</svg>