<svg width="140" height="42" viewBox="0 0 140 42" fill="none" xmlns="http://www.w3.org/2000/svg">
<g clip-path="url(#clip0_5_156)">
<path d="M130.124 0H8.7472C8.4308 0 8.1144 0 7.7952 0C7.09905 0.0101226 6.40461 0.0718922 5.7176 0.1848C5.03503 0.300402 4.3741 0.519456 3.7576 0.8344C3.13749 1.15143 2.57066 1.56332 2.0776 2.0552C1.58463 2.54733 1.1726 3.11433 0.8568 3.7352C0.538032 4.36047 0.317062 5.03093 0.2016 5.7232C0.0855547 6.40887 0.0237631 7.10262 0.0168 7.798C0 8.12 0 8.4336 0 8.7528V33.25C0 33.572 0 33.8856 0.0168 34.2076C0.0240061 34.903 0.085796 35.5967 0.2016 36.2824C0.316063 36.9649 0.534182 37.6258 0.8484 38.2424C1.48356 39.4964 2.49886 40.5176 3.7492 41.16C4.36597 41.4755 5.0267 41.6964 5.7092 41.8152C6.39628 41.9272 7.09072 41.988 7.7868 41.9972C8.106 41.9972 8.4224 41.9972 8.7388 41.9972H131.239C131.555 41.9972 131.877 41.9972 132.194 41.9972C132.888 41.9886 133.58 41.9278 134.266 41.8152C134.954 41.6959 135.621 41.4751 136.245 41.16C136.867 40.8463 137.435 40.434 137.925 39.9392C138.421 39.4479 138.835 38.8808 139.152 38.2592C139.463 37.6419 139.679 36.9811 139.793 36.2992C139.909 35.6134 139.973 34.9198 139.986 34.2244C139.986 33.9024 139.986 33.5888 139.986 33.2668C139.986 32.8916 139.986 32.5164 139.986 32.1468V9.884C139.986 9.5032 139.986 9.128 139.986 8.764C139.986 8.4448 139.986 8.1256 139.986 7.8092C139.973 7.11375 139.909 6.42021 139.793 5.7344C139.678 5.05277 139.462 4.39215 139.152 3.7744C138.517 2.51669 137.503 1.4902 136.254 0.84C135.63 0.528287 134.962 0.312139 134.274 0.1988C133.589 0.0852783 132.896 0.0235036 132.202 0.014C131.886 0.014 131.564 0.014 131.247 0.014L130.124 0Z" fill="#B6B6B6"/>
<path d="M8.75281 41.0928C8.43641 41.0928 8.12841 41.0928 7.81481 41.0928C7.16569 41.0844 6.51808 41.0282 5.87721 40.9248C5.28067 40.8235 4.70233 40.6348 4.16081 40.3648C3.08493 39.8134 2.20863 38.939 1.65481 37.8644C1.38226 37.323 1.19344 36.7433 1.09481 36.1452C0.987744 35.5029 0.93064 34.8532 0.924007 34.202C0.924007 33.9836 0.907207 33.2556 0.907207 33.2556V8.7528C0.907207 8.7528 0.907207 8.036 0.924007 7.826C0.92885 7.17393 0.985024 6.52325 1.09201 5.88C1.18936 5.27981 1.37823 4.69811 1.65201 4.1552C1.92417 3.62097 2.2806 3.13407 2.70761 2.7132C3.13408 2.28628 3.62433 1.92827 4.16081 1.652C4.70113 1.3815 5.27863 1.19278 5.87441 1.092C6.51693 0.986332 7.1665 0.929237 7.81761 0.921196H8.75281H131.242H132.188C132.834 0.926719 133.478 0.982891 134.114 1.0892C134.716 1.18791 135.299 1.37669 135.845 1.6492C136.923 2.20544 137.799 3.08714 138.348 4.1692C138.62 4.70798 138.809 5.28476 138.908 5.88C139.016 6.52807 139.075 7.18316 139.087 7.84C139.087 8.134 139.087 8.4504 139.087 8.764C139.087 9.1532 139.087 9.5228 139.087 9.884V32.116C139.087 32.494 139.087 32.8608 139.087 33.236C139.087 33.6112 139.087 33.8828 139.087 34.202C139.077 34.8458 139.018 35.4879 138.911 36.1228C138.815 36.7252 138.626 37.3089 138.351 37.8532C137.795 38.9238 136.92 39.7955 135.848 40.348C135.303 40.6208 134.721 40.8097 134.12 40.908C133.479 41.012 132.832 41.0682 132.182 41.076C131.88 41.076 131.561 41.076 131.253 41.076H8.75281V41.0928Z" fill="#191919"/>
<path d="M51.9652 28.3528H47.04L45.8444 31.64H43.68L48.496 19.3592H50.54L55.4652 31.64H53.2L51.9652 28.3528ZM47.6672 26.6728H51.3352L50.022 23.156C49.8428 22.6716 49.6636 22.134 49.49 21.546C49.3304 22.0668 49.1568 22.596 48.972 23.1392L47.6672 26.6728Z" fill="white"/>
<path d="M56.336 24.7324C56.336 24.0548 56.3136 23.3081 56.2688 22.4924H58.2288C58.3024 22.8764 58.3529 23.2644 58.38 23.6544C58.7229 23.2434 59.1508 22.9115 59.6341 22.6814C60.1174 22.4514 60.6448 22.3286 61.18 22.3216C61.8076 22.3117 62.4239 22.4891 62.9501 22.8313C63.4763 23.1735 63.8885 23.6648 64.134 24.2424C64.4785 25.0365 64.642 25.8973 64.6128 26.7624C64.6341 27.7057 64.4427 28.6416 64.0528 29.5008C63.7266 30.2139 63.1941 30.8127 62.524 31.22C61.8346 31.6184 61.0493 31.8208 60.2532 31.8052C59.6267 31.8048 59.0048 31.6988 58.4136 31.4916V35.28L56.3192 35.4592L56.336 24.7324ZM61.8408 29.4C62.2664 28.84 62.482 28 62.482 26.88C62.482 25.8589 62.3047 25.1123 61.95 24.64C61.7898 24.4205 61.5787 24.2432 61.3348 24.1232C61.091 24.0032 60.8217 23.9442 60.55 23.9512C60.1587 23.946 59.7728 24.0425 59.43 24.2312C59.0659 24.4375 58.7346 24.697 58.4472 25.0012V29.9012C58.6792 30.0106 58.9237 30.0915 59.1752 30.142C59.4457 30.2005 59.7216 30.2306 59.9984 30.2316C60.3499 30.2526 60.7012 30.188 61.0222 30.0431C61.3431 29.8982 61.6241 29.6775 61.8408 29.4Z" fill="white"/>
<path d="M65.8868 24.7324C65.8868 24.0548 65.8644 23.3081 65.8196 22.4924H67.7796C67.8555 22.8761 67.907 23.2642 67.9336 23.6544C68.7493 22.7659 69.6827 22.3216 70.7336 22.3216C71.3612 22.3117 71.9775 22.4891 72.5037 22.8313C73.0298 23.1735 73.4421 23.6648 73.6876 24.2424C74.032 25.0365 74.1956 25.8973 74.1664 26.7624C74.1921 27.7046 74.0055 28.6405 73.6204 29.5008C73.2935 30.2143 72.7599 30.8132 72.0888 31.22C71.3995 31.6188 70.6142 31.8212 69.818 31.8052C69.1915 31.8048 68.5696 31.6988 67.9784 31.4916V35.28L65.884 35.4592L65.8868 24.7324ZM71.4 29.4C71.8256 28.8269 72.0384 27.9869 72.0384 26.88C72.0384 25.8589 71.862 25.1123 71.5092 24.64C71.3489 24.4205 71.1378 24.2432 70.894 24.1232C70.6502 24.0032 70.3809 23.9442 70.1092 23.9512C69.718 23.9465 69.3322 24.0429 68.9892 24.2312C68.6251 24.4375 68.2938 24.697 68.0064 25.0012V29.9012C68.2388 30.0098 68.4831 30.0906 68.7344 30.142C69.0049 30.2005 69.2808 30.2306 69.5576 30.2316C69.909 30.2522 70.2602 30.1873 70.5811 30.0424C70.902 29.8976 71.1829 29.6772 71.4 29.4Z" fill="white"/>
<path d="M78.0164 31.0604C77.1216 30.5697 76.3949 29.8215 75.9304 28.9128C75.4227 27.886 75.1729 26.751 75.2024 25.606C75.1661 24.3809 75.456 23.1682 76.0424 22.092C76.5719 21.1581 77.3672 20.4027 78.3272 19.922C79.3361 19.4291 80.4469 19.1806 81.5696 19.1968C82.2505 19.1939 82.9292 19.2728 83.5912 19.432C84.2104 19.5778 84.8114 19.7919 85.3832 20.0704L84.84 21.6804C83.8496 21.1808 82.7599 20.9091 81.6508 20.8852C80.8679 20.8722 80.0954 21.0653 79.4108 21.4452C78.7612 21.8181 78.2392 22.3782 77.9128 23.0524C77.5375 23.852 77.3553 24.7286 77.3808 25.6116C77.3669 26.4071 77.5056 27.198 77.7896 27.9412C78.0474 28.5991 78.5009 29.162 79.0888 29.554C79.7586 29.9731 80.5394 30.18 81.3288 30.1476C81.7379 30.1466 82.1462 30.112 82.5496 30.044C82.94 29.982 83.3235 29.8826 83.6948 29.7472V27.2496H80.8556V25.6228H85.7304V30.8C85.0232 31.1296 84.2825 31.3821 83.5212 31.5532C82.7663 31.7271 81.9943 31.8154 81.2196 31.8164C80.1047 31.8432 79.0017 31.5828 78.0164 31.0604Z" fill="white"/>
<path d="M93.17 31.64C93.0908 31.2401 93.0421 30.8348 93.0244 30.4276C92.6746 30.8346 92.2472 31.1677 91.7672 31.4076C91.2253 31.6821 90.6246 31.8205 90.0172 31.8108C89.5202 31.8171 89.0282 31.7108 88.578 31.5C88.1498 31.2992 87.7918 30.9743 87.5504 30.5676C87.2829 30.1066 87.15 29.5799 87.1668 29.0472C87.1511 28.6432 87.2297 28.241 87.3964 27.8726C87.5631 27.5042 87.8133 27.1797 88.1272 26.9248C88.7656 26.3947 89.8305 26.1305 91.322 26.1324C91.8776 26.1322 92.4324 26.1715 92.9824 26.25V26.0708C92.9824 25.2644 92.8107 24.6951 92.4672 24.3628C92.0566 24.0095 91.5237 23.8315 90.9832 23.8672C90.4991 23.8731 90.0176 23.9389 89.5496 24.0632C89.086 24.175 88.6341 24.3306 88.2 24.528L87.8696 23.0048C88.3444 22.8021 88.8376 22.6456 89.3424 22.5372C89.9773 22.3936 90.6263 22.3223 91.2772 22.3244C91.9668 22.3056 92.653 22.4285 93.2932 22.6856C93.8563 22.9346 94.3148 23.3723 94.5896 23.9232C94.9332 24.6609 95.0937 25.4706 95.0572 26.2836V29.9236C95.0572 30.2969 95.0796 30.87 95.1244 31.6428L93.17 31.64ZM91.9156 29.96C92.3192 29.7724 92.6818 29.507 92.9824 29.1788V27.4988C92.5176 27.4439 92.0504 27.413 91.5824 27.4064C90.7181 27.4064 90.1199 27.5464 89.7876 27.8264C89.6255 27.9633 89.4967 28.1353 89.4108 28.3293C89.325 28.5234 89.2843 28.7344 89.292 28.9464C89.2768 29.1296 89.3013 29.3139 89.3636 29.4869C89.4259 29.6598 89.5247 29.8174 89.6532 29.9488C89.9262 30.179 90.2767 30.2962 90.6332 30.2764C91.0792 30.2697 91.5177 30.1615 91.9156 29.96Z" fill="white"/>
<path d="M96.6756 29.4448V18.6368L98.7588 18.4688V29.0724C98.7292 29.3668 98.7992 29.6625 98.9576 29.9124C99.0376 29.9984 99.1362 30.0651 99.2459 30.1073C99.3555 30.1495 99.4733 30.1662 99.5904 30.156C99.7803 30.1478 99.9684 30.1158 100.15 30.0608L100.397 31.5616C100.162 31.6501 99.9193 31.7139 99.6716 31.752C99.4043 31.7984 99.1337 31.8227 98.8624 31.8248C97.4045 31.8155 96.6756 31.0221 96.6756 29.4448Z" fill="white"/>
<path d="M101.886 29.4448V18.6368L103.972 18.4688V29.0724C103.943 29.3668 104.013 29.6625 104.171 29.9124C104.251 29.9984 104.35 30.0651 104.459 30.1073C104.569 30.1495 104.687 30.1662 104.804 30.156C104.994 30.1478 105.182 30.1158 105.364 30.0608L105.608 31.5616C105.374 31.6501 105.132 31.7139 104.885 31.752C104.617 31.7985 104.345 31.8228 104.073 31.8248C102.617 31.8155 101.888 31.0221 101.886 29.4448Z" fill="white"/>
<path d="M114.176 27.3336H108.192C108.287 29.2507 109.2 30.2092 110.93 30.2092C111.375 30.2069 111.817 30.1543 112.249 30.0524C112.691 29.9497 113.123 29.8091 113.54 29.6324L113.999 31.066C112.921 31.574 111.741 31.8288 110.55 31.8108C109.696 31.8354 108.85 31.6427 108.091 31.2508C107.434 30.8955 106.906 30.3406 106.585 29.666C106.229 28.8845 106.057 28.0322 106.081 27.174C106.058 26.2747 106.241 25.3821 106.616 24.5644C106.935 23.8705 107.453 23.2862 108.102 22.8844C108.768 22.4921 109.53 22.2924 110.303 22.3076C111.07 22.2805 111.827 22.4928 112.468 22.9152C113.046 23.3163 113.493 23.878 113.756 24.5308C114.044 25.2419 114.187 26.0036 114.176 26.7708V27.3336ZM112.134 26.0036C112.138 25.4091 111.941 24.8308 111.574 24.3628C111.41 24.1787 111.207 24.0332 110.98 23.9364C110.753 23.8396 110.508 23.794 110.261 23.8028C110.013 23.7977 109.767 23.8449 109.538 23.9414C109.309 24.0379 109.103 24.1815 108.934 24.3628C108.539 24.8228 108.297 25.3943 108.242 25.998L112.134 26.0036Z" fill="white"/>
<path d="M115.76 24.7912C115.76 24.29 115.735 23.5228 115.69 22.4952H117.65C117.684 22.75 117.715 23.0552 117.748 23.4052C117.782 23.7552 117.799 24.0464 117.81 24.2676C118.021 23.9107 118.261 23.5717 118.527 23.254C118.758 22.9825 119.037 22.7556 119.35 22.5848C119.679 22.4072 120.048 22.3175 120.422 22.3244C120.706 22.3175 120.989 22.3524 121.262 22.428L120.999 24.2424C120.671 24.1475 120.327 24.1234 119.989 24.1716C119.651 24.2199 119.327 24.3395 119.039 24.5224C118.576 24.8669 118.172 25.2849 117.844 25.76V31.64H115.76V24.7912Z" fill="white"/>
<path d="M122.427 35.3836C122.172 35.3423 121.92 35.2815 121.674 35.2016L122.055 33.6756C122.231 33.723 122.409 33.7613 122.59 33.7904C122.791 33.8262 122.995 33.8449 123.2 33.8464C124.133 33.8464 124.828 33.25 125.283 32.0572L125.42 31.7184L122.046 22.4952H124.286L126 27.65C126.219 28.3131 126.397 28.9892 126.532 29.6744C126.692 29.0136 126.876 28.3528 127.092 27.692L128.8 22.4952H130.908L127.548 31.7604C127.295 32.5067 126.95 33.2187 126.521 33.88C126.194 34.3795 125.747 34.7895 125.222 35.0728C124.658 35.3479 124.037 35.4824 123.41 35.4648C123.081 35.4661 122.752 35.4389 122.427 35.3836Z" fill="white"/>
<path d="M43.68 7.6664H47.404L47.3004 8.568H44.7664V10.3124H47.1548V11.1524H44.7664V13.0844H47.4348L47.3424 14H43.68V7.6664Z" fill="white"/>
<path d="M49.9772 10.7688L48.0172 7.6664H49.2604L50.5932 9.9456L51.9932 7.6664H53.2L51.24 10.7296L53.3596 14H52.0996L50.5904 11.508L49.0532 14H47.8464L49.9772 10.7688Z" fill="white"/>
<path d="M54.1632 7.6664H55.8712C56.672 7.6664 57.2861 7.82973 57.7136 8.1564C57.9262 8.3237 58.0953 8.53988 58.2065 8.78655C58.3176 9.03322 58.3675 9.30309 58.352 9.5732C58.3639 9.95901 58.2668 10.3404 58.072 10.6736C57.8819 10.9869 57.6046 11.2379 57.274 11.396C56.9067 11.5696 56.5042 11.6559 56.098 11.648C55.816 11.644 55.5349 11.615 55.258 11.5612V14H54.1632V7.6664ZM56.9072 10.4944C57.0267 10.3797 57.1198 10.2404 57.1802 10.0862C57.2407 9.93201 57.2669 9.76653 57.2572 9.6012C57.2715 9.44275 57.2465 9.28323 57.1844 9.13673C57.1224 8.99023 57.0253 8.86125 56.9016 8.7612C56.5865 8.56928 56.2198 8.47932 55.8516 8.5036H55.258V10.7436C55.4661 10.7811 55.6767 10.8026 55.888 10.808C56.2551 10.8355 56.6191 10.7236 56.9072 10.4944Z" fill="white"/>
<path d="M59.4328 7.6664H60.5248V13.0648H63.1456L63.0532 14H59.4328V7.6664Z" fill="white"/>
<path d="M64.8088 13.6892C64.3499 13.431 63.9792 13.0408 63.7448 12.5692C63.4901 12.0465 63.3643 11.4705 63.378 10.8892C63.3646 10.2818 63.4991 9.68024 63.77 9.1364C64.0183 8.64619 64.4086 8.24221 64.89 7.9772C65.4289 7.69495 66.032 7.55792 66.64 7.5796C67.2149 7.56417 67.7837 7.70034 68.2892 7.9744C68.7453 8.23354 69.1131 8.62374 69.3448 9.0944C69.5945 9.61162 69.7183 10.1806 69.706 10.7548C69.7212 11.369 69.5856 11.9775 69.3112 12.5272C69.0605 13.0157 68.6708 13.4191 68.1912 13.6864C67.6618 13.9681 67.0688 14.1088 66.4692 14.0952C65.8895 14.1099 65.3163 13.9697 64.8088 13.6892ZM67.6424 12.9136C67.9511 12.7091 68.1911 12.4164 68.3312 12.0736C68.4883 11.6812 68.5654 11.2614 68.558 10.8388C68.565 10.424 68.4967 10.0113 68.3564 9.6208C68.2308 9.2826 68.0064 8.98995 67.7124 8.7808C67.3715 8.57218 66.9795 8.46178 66.5798 8.46178C66.1801 8.46178 65.7882 8.57218 65.4472 8.7808C65.1377 8.99556 64.8966 9.29497 64.7528 9.6432C64.5935 10.0194 64.5143 10.4247 64.5204 10.8332C64.5137 11.2541 64.5878 11.6723 64.7388 12.0652C64.8729 12.4247 65.1182 12.732 65.439 12.9425C65.7597 13.1529 66.1393 13.2556 66.5224 13.2356C66.9199 13.2454 67.3108 13.133 67.6424 12.9136Z" fill="white"/>
<path d="M70.924 7.6664H72.9064C73.4872 7.62529 74.0652 7.77792 74.55 8.1004C74.736 8.24643 74.884 8.43518 74.9815 8.65064C75.079 8.86609 75.1231 9.10188 75.11 9.338C75.1166 9.64502 75.0473 9.94893 74.9084 10.2228C74.7869 10.4629 74.6172 10.6755 74.41 10.8472C74.2247 10.9968 74.0168 11.1159 73.794 11.2L75.754 14H74.48L72.8308 11.48H72.0272V14H70.924V7.6664ZM72.6404 10.6624C72.8836 10.6677 73.1245 10.6149 73.3432 10.5084C73.5401 10.4138 73.7062 10.2653 73.822 10.08C73.9375 9.88226 73.9966 9.6566 73.9928 9.4276C74.0041 9.29543 73.9823 9.16254 73.9296 9.04084C73.8768 8.91915 73.7946 8.81248 73.6904 8.7304C73.4279 8.56606 73.1202 8.48866 72.8112 8.5092H72.0188V10.6736L72.6404 10.6624Z" fill="white"/>
<path d="M76.608 7.6664H80.3404L80.234 8.568H77.714V10.3124H80.08V11.1524H77.6916V13.0844H80.36L80.2788 14H76.608V7.6664Z" fill="white"/>
<path d="M84.4004 7.6664H85.4924V14H84.4004V7.6664Z" fill="white"/>
<path d="M88.3848 8.5792H86.4248L86.52 7.6664H91.448L91.3472 8.5792H89.4796V14H88.3848V8.5792Z" fill="white"/>
<path d="M96.194 13.6892C95.7359 13.4308 95.3661 13.0406 95.1328 12.5692C94.8758 12.0472 94.749 11.4708 94.7632 10.8892C94.7498 10.2818 94.8843 9.68024 95.1552 9.1364C95.4042 8.64669 95.7943 8.2429 96.2752 7.9772C96.81 7.69356 97.4089 7.55275 98.014 7.5684C98.5956 7.55273 99.1708 7.69291 99.68 7.9744C100.137 8.23271 100.505 8.62313 100.736 9.0944C100.986 9.61138 101.111 10.1804 101.1 10.7548C101.115 11.3693 100.979 11.9782 100.702 12.5272C100.452 13.0163 100.062 13.4199 99.582 13.6864C99.0528 13.9688 98.4596 14.1096 97.86 14.0952C97.2784 14.1109 96.7032 13.9707 96.194 13.6892ZM99.0304 12.9136C99.3376 12.7081 99.5764 12.4156 99.7164 12.0736C99.8735 11.6812 99.9506 11.2614 99.9432 10.8388C99.9502 10.4239 99.8819 10.0113 99.7416 9.6208C99.617 9.28279 99.3936 8.9901 99.1004 8.7808C98.759 8.57193 98.3666 8.4614 97.9664 8.4614C97.5662 8.4614 97.1738 8.57193 96.8324 8.7808C96.5229 8.99555 96.2818 9.29497 96.138 9.6432C95.98 10.0198 95.9009 10.4248 95.9056 10.8332C95.8989 11.2541 95.973 11.6723 96.124 12.0652C96.2576 12.4106 96.4905 12.7087 96.7932 12.922C97.1247 13.1408 97.5163 13.2504 97.9132 13.2356C98.3096 13.2437 98.6991 13.1315 99.0304 12.9136Z" fill="white"/>
<path d="M102.312 7.6664H103.566L106.7 12.5748C106.672 12.1072 106.66 11.6788 106.66 11.284V7.6664H107.674V14H106.459L103.278 9.0132C103.309 9.5732 103.326 10.08 103.326 10.5196V14H102.312V7.6664Z" fill="white"/>
<path fill-rule="evenodd" clip-rule="evenodd" d="M28.28 7.7H16.6572C11.1776 7.7 9.17279 9.7048 9.17279 15.1844V26.8156C9.17279 32.2952 11.1776 34.3 16.6572 34.3H28.28C33.7596 34.3 35.7672 32.2952 35.7672 26.8156V15.1844C35.7728 9.7048 33.768 7.7 28.28 7.7Z" fill="#C8102E"/>
<path d="M14.4396 21H15.1452V24.4804H14.4396V23.0664H12.8464V24.4804H12.1408V21H12.8464V22.4H14.4396V21ZM18.4156 22.9908C18.4156 23.5508 18.1356 23.8588 17.626 23.8588C17.1164 23.8588 16.8308 23.5508 16.8308 22.96V21H16.1252V22.988C16.1252 23.9652 16.6684 24.5252 17.6148 24.5252C18.5612 24.5252 19.1212 23.9652 19.1212 22.9572V21H18.4156V22.9908ZM26.5692 23.3912L25.7796 21H25.2L24.416 23.394L23.646 21H22.8956L24.108 24.4804H24.6932L25.48 22.1956L26.2696 24.4804H26.8604L28.0728 21H27.3392L26.5692 23.3912ZM29.3356 22.9796H30.6208V22.3496H29.3356V21.6384H31.2004V21H28.6412V24.472H31.2676V23.8448H29.3356V22.9796ZM32.1076 24.472H32.8048V21H32.1076V24.472ZM20.5156 23.7524L20.1992 24.4748H19.4796L21 21H21.6216L23.1476 24.4748H22.4196L22.12 23.7552L20.5156 23.7524ZM20.7788 23.1252H21.84L21.308 21.882L20.7788 23.1252Z" fill="white"/>
<path d="M22.4728 16.5732C21.299 16.5725 20.1734 16.1058 19.3434 15.2758C18.5134 14.4458 18.0467 13.3202 18.046 12.1464H18.6704C18.6704 13.1549 19.071 14.122 19.7841 14.8351C20.4972 15.5482 21.4643 15.9488 22.4728 15.9488C23.4812 15.9488 24.4484 15.5482 25.1615 14.8351C25.8746 14.122 26.2752 13.1549 26.2752 12.1464H26.8996C26.8988 13.3202 26.4322 14.4458 25.6022 15.2758C24.7722 16.1058 23.6466 16.5725 22.4728 16.5732Z" fill="white"/>
</g>
<defs>
<clipPath id="clip0_5_156">
<rect width="140" height="42" fill="white"/>
</clipPath>
</defs>
</svg>
