<svg width="144" height="42" viewBox="0 0 144 42" fill="none" xmlns="http://www.w3.org/2000/svg">
<g clip-path="url(#clip0_5_146)">
<path fill-rule="evenodd" clip-rule="evenodd" d="M11.4737 1.8066e-06H132.533C132.965 1.8066e-06 133.405 -0.000134693 133.837 0.00196531C134.137 0.00363663 134.442 0.00804349 134.744 0.0123933C134.812 0.0133723 134.879 0.0143484 134.947 0.0152898C135.753 0.02311 136.558 0.0851597 137.353 0.200888C138.152 0.319454 138.926 0.541348 139.65 0.859238C141.097 1.50783 142.275 2.53596 143.018 3.79903C143.381 4.42838 143.632 5.10225 143.763 5.79751C143.897 6.4924 143.971 7.19504 143.986 7.89961C143.991 8.22159 143.991 8.54459 143.991 8.86656C144 9.24697 144 9.62842 144 10.0129V31.988C144 32.3757 144 32.7551 143.991 33.1365C143.991 33.4626 143.991 33.7784 143.986 34.1045C143.971 34.8091 143.897 35.5117 143.763 36.2065C143.632 36.9022 143.381 37.5764 143.018 38.206C142.648 38.8326 142.169 39.4046 141.596 39.901C141.027 40.4017 140.37 40.8196 139.65 41.1387C138.926 41.4574 138.152 41.6806 137.353 41.801C136.558 41.9158 135.753 41.9779 134.947 41.9867C134.58 41.9938 134.204 41.9979 133.837 41.9979C133.405 42 132.965 42 132.533 42H11.4737C11.0325 42 10.5965 42 10.1564 41.9979C9.78796 41.9979 9.42249 41.9938 9.05054 41.9867C8.24254 41.9774 7.43648 41.9153 6.63911 41.801C5.8429 41.6815 5.0718 41.4582 4.35165 41.1387C3.63063 40.8198 2.97298 40.4019 2.40381 39.901C1.82939 39.4066 1.35057 38.8341 0.98598 38.206C0.619865 37.5769 0.366228 36.9026 0.233875 36.2065C0.0998957 35.5118 0.0277988 34.809 0.018231 34.1045C0.0106016 33.8817 0.00763413 33.6637 0.00464315 33.444C0.00325621 33.3421 0.00186422 33.2398 0 33.1365V8.86656C0.00188632 8.76335 0.00328914 8.66003 0.00469246 8.55668C0.00766688 8.33761 0.0106435 8.11839 0.018231 7.89966C0.0277959 7.19515 0.0998928 6.49235 0.233875 5.79756C0.366595 5.10189 0.620217 4.42797 0.98598 3.79907C1.35074 3.16892 1.82948 2.59417 2.40381 2.09693C2.97514 1.59828 3.63237 1.1807 4.35165 0.859332C5.07181 0.540663 5.84299 0.318711 6.63911 0.200982C7.43635 0.0857619 8.24249 0.0237337 9.05054 0.0154368C9.12776 0.0143709 9.20469 0.0132633 9.28144 0.0121585C9.57436 0.00794173 9.86445 0.00376583 10.1564 0.00210181C10.5965 1.80665e-06 11.0325 1.8066e-06 11.4737 1.8066e-06ZM8.96857 41.0732C9.33297 41.0803 9.69137 41.0844 10.0586 41.0844L132.641 41.0865L133.947 41.0844C134.306 41.0844 134.676 41.0803 135.029 41.0732C135.784 41.0652 136.537 41.0079 137.282 40.9019C137.982 40.7985 138.66 40.6038 139.293 40.3245C139.918 40.0478 140.487 39.6852 140.98 39.2506C141.473 38.8246 141.886 38.3335 142.204 37.7953C142.523 37.2432 142.742 36.6517 142.855 36.0415C142.978 35.3979 143.047 34.7472 143.061 34.0949C143.066 33.7729 143.066 33.46 143.066 33.1185C143.075 32.7431 143.075 32.3708 143.075 31.9893V10.0096C143.075 9.63166 143.075 9.25681 143.066 8.86298C143.066 8.54503 143.066 8.22556 143.062 7.92814C143.048 7.26391 142.978 6.60149 142.853 5.94615C142.739 5.34387 142.522 4.76002 142.208 4.21442C141.565 3.12334 140.547 2.23467 139.296 1.67296C138.661 1.39516 137.983 1.20124 137.282 1.0976C136.541 0.991697 135.793 0.934617 135.042 0.926846L133.941 0.913508H10.0592L8.97154 0.926332C8.21405 0.934509 7.45832 0.992103 6.71071 1.09863C6.01728 1.20099 5.34545 1.39356 4.71772 1.66989C4.09325 1.94861 3.52284 2.31095 3.02727 2.74371C2.53115 3.17238 2.11791 3.66817 1.80358 4.21186C1.48443 4.76125 1.26351 5.3499 1.14846 5.95743C1.02482 6.60743 0.958118 7.26469 0.948926 7.92351C0.941874 8.13684 0.931217 8.86298 0.931217 8.86298V33.1236C0.931217 33.1236 0.941223 33.8611 0.948865 34.0826C0.958466 34.7425 1.02556 35.4007 1.14957 36.0518C1.26441 36.6576 1.48516 37.2446 1.80413 37.7922C2.11963 38.3362 2.53517 38.8317 3.0343 39.2588C3.52631 39.6911 4.0949 40.0515 4.71831 40.3265C5.34749 40.6037 6.02059 40.7976 6.71542 40.9019C7.46059 41.0073 8.2137 41.0646 8.96857 41.0732Z" fill="#A6A6A6"/>
<path d="M10.0586 41.0844C9.69137 41.0844 9.33296 41.0803 8.96857 41.0732C8.2137 41.0646 7.46059 41.0073 6.71542 40.9019C6.02059 40.7976 5.34748 40.6037 4.71831 40.3265C4.0949 40.0515 3.5263 39.6911 3.0343 39.2588C2.53517 38.8317 2.11962 38.3362 1.80413 37.7922C1.48515 37.2446 1.2644 36.6576 1.14957 36.0518C1.02556 35.4007 0.958462 34.7425 0.948861 34.0826C0.941219 33.8611 0.931213 33.1236 0.931213 33.1236V8.86297C0.931213 8.86297 0.94187 8.13684 0.948921 7.92351C0.958114 7.26469 1.02482 6.60743 1.14846 5.95743C1.26351 5.3499 1.48443 4.76125 1.80357 4.21186C2.11791 3.66817 2.53115 3.17238 3.02727 2.7437C3.52283 2.31095 4.09325 1.94861 4.71772 1.66988C5.34545 1.39355 6.01728 1.20098 6.71071 1.09863C7.45832 0.9921 8.21404 0.934506 8.97153 0.926329L10.0592 0.913506H133.941L135.042 0.926843C135.793 0.934614 136.541 0.991694 137.282 1.0976C137.983 1.20124 138.661 1.39515 139.296 1.67296C140.547 2.23467 141.565 3.12334 142.208 4.21442C142.522 4.76002 142.739 5.34386 142.853 5.94615C142.978 6.60149 143.048 7.26391 143.062 7.92813C143.066 8.22555 143.066 8.54503 143.066 8.86297C143.075 9.25681 143.075 9.63166 143.075 10.0096V31.9893C143.075 32.3708 143.075 32.7431 143.066 33.1185C143.066 33.46 143.066 33.7729 143.061 34.0949C143.047 34.7472 142.978 35.3979 142.855 36.0415C142.742 36.6517 142.523 37.2432 142.204 37.7953C141.886 38.3335 141.473 38.8246 140.98 39.2506C140.487 39.6852 139.918 40.0478 139.293 40.3245C138.66 40.6038 137.982 40.7985 137.282 40.9019C136.537 41.0079 135.784 41.0652 135.029 41.0732C134.676 41.0803 134.306 41.0844 133.947 41.0844L132.641 41.0865L10.0586 41.0844Z" fill="#191919"/>
<path d="M34.9838 21.3157C34.9953 20.4393 35.2318 19.58 35.6712 18.8178C36.1107 18.0555 36.739 17.4151 37.4975 16.956C37.0156 16.2786 36.3799 15.7211 35.6409 15.3279C34.9019 14.9346 34.0799 14.7163 33.2402 14.6905C31.449 14.5054 29.7126 15.7456 28.7998 15.7456C27.8694 15.7456 26.464 14.7089 24.9507 14.7395C23.9719 14.7706 23.0179 15.0508 22.1818 15.5528C21.3456 16.0548 20.6558 16.7614 20.1796 17.6038C18.1167 21.1196 19.6554 26.2867 21.6316 29.1287C22.6203 30.5203 23.7758 32.0747 25.2877 32.0196C26.7672 31.9592 27.3198 31.0909 29.1057 31.0909C30.8751 31.0909 31.3935 32.0196 32.9361 31.9846C34.5237 31.9592 35.524 30.5868 36.478 29.182C37.1884 28.1904 37.735 27.0945 38.0977 25.9348C37.1753 25.5508 36.3882 24.908 35.8345 24.0866C35.2807 23.2652 34.9849 22.3015 34.9838 21.3157Z" fill="white"/>
<path d="M32.0701 12.8214C32.9357 11.7985 33.3621 10.4837 33.2589 9.15628C31.9364 9.29301 30.7148 9.9152 29.8375 10.8989C29.4085 11.3794 29.08 11.9385 28.8706 12.5441C28.6613 13.1497 28.5753 13.79 28.6175 14.4283C29.279 14.435 29.9334 14.2939 30.5314 14.0156C31.1295 13.7372 31.6555 13.3289 32.0701 12.8214Z" fill="white"/>
<path d="M53.6861 28.4966H48.6371L47.4246 32.0209H45.2861L50.0684 18.982H52.2902L57.0725 32.0209H54.8975L53.6861 28.4966ZM49.16 26.8704H53.1622L51.1893 21.1507H51.134L49.16 26.8704Z" fill="white"/>
<path d="M67.4007 27.2682C67.4007 30.2224 65.7944 32.1204 63.3705 32.1204C62.7564 32.152 62.1458 32.0127 61.6084 31.7186C61.071 31.4245 60.6286 30.9873 60.3319 30.4572H60.2861V35.1658H58.3038V22.5145H60.2225V24.0957H60.259C60.5694 23.5681 61.0192 23.1332 61.5607 22.8372C62.1021 22.5413 62.715 22.3954 63.334 22.415C65.785 22.415 67.4007 24.3223 67.4007 27.2682ZM65.3632 27.2682C65.3632 25.3436 64.3527 24.0782 62.8111 24.0782C61.2965 24.0782 60.2777 25.3702 60.2777 27.2682C60.2777 29.1837 61.2965 30.4664 62.8111 30.4664C64.3528 30.4664 65.3632 29.2103 65.3632 27.2682Z" fill="white"/>
<path d="M78.0298 27.2682C78.0298 30.2224 76.4236 32.1204 73.9996 32.1204C73.3856 32.152 72.7749 32.0127 72.2376 31.7186C71.7002 31.4245 71.2578 30.9873 70.9611 30.4572H70.9152V35.1658H68.9329V22.5145H70.8517V24.0957H70.8881C71.1985 23.5681 71.6483 23.1332 72.1898 22.8372C72.7313 22.5413 73.3441 22.3954 73.9631 22.415C76.4142 22.415 78.0298 24.3223 78.0298 27.2682ZM75.9923 27.2682C75.9923 25.3436 74.9819 24.0782 73.4402 24.0782C71.9257 24.0782 70.9069 25.3702 70.9069 27.2682C70.9069 29.1837 71.9257 30.4664 73.4402 30.4664C74.9819 30.4664 75.9923 29.2103 75.9923 27.2682Z" fill="white"/>
<path d="M85.0548 28.3879C85.2017 29.681 86.4778 30.5299 88.2215 30.5299C89.8923 30.5299 91.0944 29.6809 91.0944 28.515C91.0944 27.503 90.3694 26.897 88.6528 26.4817L86.9361 26.0746C84.5038 25.4963 83.3746 24.3766 83.3746 22.5596C83.3746 20.3099 85.3663 18.7646 88.1944 18.7646C90.9934 18.7646 92.9121 20.3099 92.9767 22.5596H90.9756C90.8559 21.2583 89.7631 20.4729 88.1663 20.4729C86.5694 20.4729 85.4767 21.2676 85.4767 22.4242C85.4767 23.346 86.1746 23.8885 87.8819 24.3037L89.3413 24.6565C92.059 25.2891 93.1881 26.3638 93.1881 28.271C93.1881 30.7104 91.2142 32.2382 88.0746 32.2382C85.1371 32.2382 83.1538 30.7462 83.0256 28.3878L85.0548 28.3879Z" fill="white"/>
<path d="M97.4663 20.2648V22.5145H99.3027V24.0598H97.4663V29.3005C97.4663 30.1147 97.834 30.4941 98.6413 30.4941C98.8593 30.4904 99.077 30.4753 99.2934 30.4489V31.985C98.9304 32.0517 98.5615 32.082 98.1923 32.0752C96.2371 32.0752 95.4746 31.3523 95.4746 29.5087V24.0598H94.0705V22.5145H95.4746V20.2648H97.4663Z" fill="white"/>
<path d="M100.366 27.2682C100.366 24.2772 102.156 22.3976 104.947 22.3976C107.747 22.3976 109.528 24.2771 109.528 27.2682C109.528 30.2675 107.756 32.1388 104.947 32.1388C102.138 32.1388 100.366 30.2675 100.366 27.2682ZM107.508 27.2682C107.508 25.2164 106.553 24.0054 104.947 24.0054C103.34 24.0054 102.386 25.2256 102.386 27.2682C102.386 29.3282 103.34 30.53 104.947 30.53C106.553 30.53 107.508 29.3282 107.508 27.2682Z" fill="white"/>
<path d="M111.162 22.5145H113.053V24.1326H113.099C113.227 23.6272 113.527 23.1806 113.95 22.8678C114.373 22.555 114.893 22.3952 115.422 22.415C115.65 22.4142 115.878 22.4387 116.101 22.4878V24.313C115.812 24.2263 115.511 24.1864 115.21 24.1951C114.922 24.1836 114.635 24.2336 114.368 24.3416C114.102 24.4497 113.862 24.6132 113.666 24.821C113.47 25.0287 113.322 25.2759 113.232 25.5454C113.142 25.8149 113.112 26.1004 113.144 26.3823V32.0209H111.162L111.162 22.5145Z" fill="white"/>
<path d="M125.24 29.2288C124.974 30.9545 123.266 32.1388 121.082 32.1388C118.273 32.1388 116.529 30.2859 116.529 27.3133C116.529 24.3315 118.282 22.3976 120.999 22.3976C123.67 22.3976 125.351 24.2043 125.351 27.0867V27.7553H118.53V27.8732C118.498 28.2231 118.543 28.5755 118.66 28.9071C118.778 29.2388 118.966 29.542 119.211 29.7967C119.457 30.0513 119.755 30.2516 120.086 30.3843C120.416 30.5169 120.771 30.5788 121.128 30.5659C121.596 30.6091 122.066 30.5023 122.468 30.2614C122.87 30.0204 123.182 29.6583 123.358 29.2287L125.24 29.2288ZM118.539 26.3915H123.367C123.385 26.0769 123.337 25.7621 123.225 25.4669C123.113 25.1716 122.941 24.9022 122.718 24.6757C122.496 24.4491 122.228 24.2703 121.933 24.1503C121.637 24.0304 121.319 23.972 120.999 23.9788C120.676 23.9769 120.356 24.0379 120.057 24.1584C119.758 24.2789 119.487 24.4564 119.258 24.6807C119.03 24.905 118.848 25.1717 118.725 25.4653C118.601 25.759 118.538 26.0737 118.539 26.3915Z" fill="white"/>
<path d="M48.9116 9.16756C49.3272 9.1382 49.7442 9.2 50.1326 9.34851C50.521 9.49701 50.871 9.72852 51.1575 10.0263C51.444 10.3241 51.6598 10.6808 51.7893 11.0706C51.9188 11.4605 51.9588 11.8737 51.9064 12.2806C51.9064 14.2822 50.8074 15.4327 48.9116 15.4327H46.6126V9.16756H48.9116ZM47.6012 14.5467H48.8012C49.0981 14.5642 49.3953 14.5162 49.6711 14.4064C49.9469 14.2966 50.1943 14.1276 50.3954 13.9117C50.5964 13.6959 50.7461 13.4386 50.8334 13.1587C50.9207 12.8787 50.9435 12.5831 50.9001 12.2934C50.9404 12.0048 50.9152 11.7111 50.8266 11.4332C50.7379 11.1553 50.5879 10.9001 50.3873 10.686C50.1867 10.4719 49.9405 10.3041 49.6663 10.1946C49.392 10.0852 49.0966 10.0368 48.8012 10.0529H47.6012V14.5467Z" fill="white"/>
<path d="M53.0231 13.0666C52.9929 12.7558 53.029 12.4424 53.1291 12.1462C53.2292 11.85 53.391 11.5777 53.6043 11.3467C53.8176 11.1157 54.0775 10.9312 54.3675 10.8049C54.6575 10.6786 54.9711 10.6134 55.2882 10.6134C55.6052 10.6134 55.9188 10.6786 56.2088 10.8049C56.4988 10.9312 56.7587 11.1157 56.972 11.3467C57.1853 11.5777 57.3472 11.85 57.4473 12.1462C57.5474 12.4424 57.5835 12.7558 57.5533 13.0666C57.584 13.3776 57.5484 13.6915 57.4485 13.9882C57.3487 14.2848 57.1869 14.5576 56.9736 14.7891C56.7603 15.0205 56.5001 15.2054 56.2098 15.332C55.9196 15.4586 55.6056 15.524 55.2882 15.524C54.9707 15.524 54.6567 15.4586 54.3665 15.332C54.0762 15.2054 53.8161 15.0205 53.6027 14.7891C53.3894 14.5576 53.2276 14.2848 53.1278 13.9882C53.028 13.6915 52.9923 13.3776 53.0231 13.0666ZM56.5783 13.0666C56.5783 12.0417 56.1105 11.4423 55.2897 11.4423C54.4658 11.4423 54.0023 12.0417 54.0023 13.0666C54.0023 14.0997 54.4658 14.6944 55.2897 14.6944C56.1106 14.6944 56.5783 14.0955 56.5783 13.0666Z" fill="white"/>
<path d="M63.5751 15.4326H62.5918L61.5991 11.9504H61.5241L60.5356 15.4326H59.5616L58.2376 10.7046H59.1991L60.0595 14.3124H60.1304L61.1179 10.7046H62.0272L63.0147 14.3124H63.0897L63.946 10.7046H64.8939L63.5751 15.4326Z" fill="white"/>
<path d="M66.0074 10.7046H66.9199V11.4557H66.9908C67.1109 11.1859 67.3136 10.9598 67.5705 10.8088C67.8275 10.6578 68.1258 10.5894 68.4241 10.6133C68.6578 10.596 68.8925 10.6307 69.1107 10.7148C69.3289 10.7989 69.5252 10.9303 69.6848 11.0991C69.8445 11.268 69.9635 11.4701 70.0331 11.6904C70.1026 11.9107 70.1209 12.1436 70.0866 12.3718V15.4326H69.1387V12.6062C69.1387 11.8463 68.8033 11.4685 68.1022 11.4685C67.9435 11.4612 67.7851 11.4878 67.6379 11.5464C67.4906 11.605 67.358 11.6943 67.2491 11.8081C67.1401 11.9219 67.0575 12.0576 67.0068 12.2057C66.9561 12.3539 66.9385 12.5112 66.9553 12.6666V15.4326H66.0074L66.0074 10.7046Z" fill="white"/>
<path d="M71.597 8.85886H72.5449V15.4326H71.597V8.85886Z" fill="white"/>
<path d="M73.8626 13.0666C73.8325 12.7558 73.8686 12.4423 73.9687 12.1461C74.0688 11.8499 74.2307 11.5776 74.444 11.3466C74.6573 11.1157 74.9173 10.9311 75.2073 10.8048C75.4973 10.6785 75.8109 10.6133 76.128 10.6133C76.4451 10.6133 76.7587 10.6785 77.0487 10.8048C77.3387 10.9311 77.5987 11.1157 77.812 11.3466C78.0253 11.5776 78.1872 11.8499 78.2873 12.1461C78.3874 12.4423 78.4235 12.7558 78.3934 13.0666C78.4241 13.3776 78.3884 13.6915 78.2885 13.9882C78.1887 14.2848 78.0268 14.5576 77.8135 14.7891C77.6002 15.0205 77.34 15.2054 77.0497 15.332C76.7594 15.4585 76.4455 15.5239 76.128 15.5239C75.8105 15.5239 75.4966 15.4585 75.2063 15.332C74.916 15.2054 74.6558 15.0205 74.4425 14.7891C74.2291 14.5576 74.0673 14.2848 73.9675 13.9882C73.8676 13.6915 73.8319 13.3776 73.8626 13.0666ZM77.4178 13.0666C77.4178 12.0417 76.9501 11.4423 76.1293 11.4423C75.3053 11.4423 74.8418 12.0417 74.8418 13.0666C74.8418 14.0997 75.3054 14.6944 76.1293 14.6944C76.9501 14.6944 77.4178 14.0955 77.4178 13.0666Z" fill="white"/>
<path d="M79.3913 14.0955C79.3913 13.2445 80.035 12.7538 81.1777 12.6841L82.4788 12.6103V12.2022C82.4788 11.7028 82.1434 11.4208 81.4955 11.4208C80.9663 11.4208 80.5996 11.6121 80.4944 11.9463H79.5767C79.6736 11.1342 80.4496 10.6133 81.5392 10.6133C82.7434 10.6133 83.4225 11.2034 83.4225 12.2022V15.4327H82.51V14.7682H82.435C82.2828 15.0065 82.069 15.2008 81.8156 15.3313C81.5621 15.4617 81.278 15.5236 80.9923 15.5106C80.7907 15.5312 80.5869 15.51 80.3941 15.4484C80.2013 15.3868 80.0237 15.286 79.8729 15.1527C79.722 15.0194 79.6012 14.8564 79.5183 14.6744C79.4354 14.4923 79.3921 14.2951 79.3913 14.0955ZM82.4788 13.6915V13.2962L81.3059 13.3701C80.6444 13.4137 80.3444 13.6351 80.3444 14.052C80.3444 14.4775 80.7194 14.7251 81.2351 14.7251C81.3862 14.7402 81.5388 14.7252 81.6839 14.681C81.8289 14.6368 81.9635 14.5643 82.0795 14.4679C82.1956 14.3714 82.2907 14.253 82.3593 14.1196C82.4279 13.9863 82.4685 13.8407 82.4788 13.6915Z" fill="white"/>
<path d="M84.6684 13.0666C84.6684 11.5726 85.4486 10.6261 86.6621 10.6261C86.9623 10.6125 87.2602 10.6833 87.521 10.8302C87.7819 10.9771 87.9948 11.194 88.135 11.4556H88.2059V8.85886H89.1538V15.4326H88.2455V14.6856H88.1705C88.0194 14.9455 87.799 15.1597 87.5332 15.3051C87.2673 15.4505 86.9661 15.5216 86.6621 15.5106C85.4403 15.5106 84.6684 14.5641 84.6684 13.0666ZM85.6476 13.0666C85.6476 14.0694 86.1278 14.6728 86.9309 14.6728C87.7298 14.6728 88.2236 14.0607 88.2236 13.0707C88.2236 12.0853 87.7247 11.4644 86.9309 11.4644C86.133 11.4644 85.6476 12.0719 85.6476 13.0666Z" fill="white"/>
<path d="M93.0757 13.0666C93.0455 12.7558 93.0816 12.4424 93.1817 12.1462C93.2818 11.85 93.4436 11.5777 93.6569 11.3467C93.8702 11.1157 94.1301 10.9312 94.4201 10.8049C94.7101 10.6786 95.0237 10.6134 95.3408 10.6134C95.6579 10.6134 95.9714 10.6786 96.2614 10.8049C96.5514 10.9312 96.8113 11.1157 97.0246 11.3467C97.2379 11.5777 97.3998 11.85 97.4999 12.1462C97.6 12.4424 97.6361 12.7558 97.6059 13.0666C97.6366 13.3776 97.601 13.6915 97.5011 13.9882C97.4013 14.2848 97.2395 14.5576 97.0262 14.7891C96.8129 15.0205 96.5527 15.2054 96.2624 15.332C95.9722 15.4586 95.6582 15.524 95.3408 15.524C95.0233 15.524 94.7093 15.4586 94.4191 15.332C94.1288 15.2054 93.8687 15.0205 93.6553 14.7891C93.442 14.5576 93.2802 14.2848 93.1804 13.9882C93.0806 13.6915 93.0449 13.3776 93.0757 13.0666ZM96.6309 13.0666C96.6309 12.0417 96.1632 11.4423 95.3423 11.4423C94.5184 11.4423 94.0549 12.0417 94.0549 13.0666C94.0549 14.0997 94.5184 14.6944 95.3423 14.6944C96.1632 14.6944 96.6309 14.0955 96.6309 13.0666Z" fill="white"/>
<path d="M98.8777 10.7046H99.7902V11.4557H99.8611C99.9813 11.1859 100.184 10.9598 100.441 10.8088C100.698 10.6578 100.996 10.5894 101.294 10.6133C101.528 10.596 101.763 10.6307 101.981 10.7148C102.199 10.7989 102.395 10.9303 102.555 11.0991C102.715 11.268 102.834 11.4701 102.903 11.6904C102.973 11.9107 102.991 12.1436 102.957 12.3718V15.4326H102.009V12.6062C102.009 11.8463 101.674 11.4685 100.973 11.4685C100.814 11.4612 100.655 11.4878 100.508 11.5464C100.361 11.605 100.228 11.6943 100.119 11.8081C100.01 11.9219 99.9278 12.0576 99.8771 12.2057C99.8264 12.3539 99.8089 12.5112 99.8257 12.6666V15.4326H98.8777V10.7046Z" fill="white"/>
<path d="M108.313 9.52742V10.7261H109.354V11.5121H108.313V13.9433C108.313 14.4385 108.52 14.6554 108.992 14.6554C109.113 14.655 109.234 14.6478 109.354 14.6339V15.4111C109.184 15.4411 109.011 15.457 108.838 15.4588C107.784 15.4588 107.364 15.0937 107.364 14.1822V11.512H106.602V10.7261H107.364V9.52742H108.313Z" fill="white"/>
<path d="M110.649 8.85886H111.588V11.4644H111.663C111.789 11.1921 111.997 10.9647 112.259 10.8131C112.522 10.6615 112.825 10.5932 113.128 10.6174C113.36 10.605 113.593 10.6432 113.808 10.7293C114.024 10.8154 114.218 10.9474 114.376 11.1158C114.534 11.2841 114.652 11.4847 114.722 11.7033C114.793 11.9218 114.813 12.1529 114.782 12.3801V15.4326H113.833V12.6102C113.833 11.855 113.476 11.4726 112.806 11.4726C112.643 11.4594 112.479 11.4815 112.326 11.5372C112.172 11.5929 112.033 11.6809 111.918 11.7951C111.803 11.9092 111.714 12.0468 111.659 12.1982C111.603 12.3495 111.582 12.511 111.597 12.6712V15.4326H110.649L110.649 8.85886Z" fill="white"/>
<path d="M120.309 14.156C120.18 14.5881 119.901 14.9619 119.521 15.212C119.14 15.462 118.683 15.5725 118.228 15.5239C117.911 15.5321 117.597 15.4725 117.306 15.3491C117.016 15.2256 116.756 15.0415 116.544 14.8093C116.333 14.5771 116.176 14.3024 116.084 14.0044C115.991 13.7064 115.966 13.3922 116.009 13.0835C115.967 12.7738 115.993 12.4589 116.085 12.16C116.177 11.8611 116.334 11.5852 116.544 11.351C116.754 11.1167 117.012 10.9297 117.302 10.8024C117.592 10.6751 117.906 10.6106 118.224 10.6133C119.56 10.6133 120.366 11.5121 120.366 12.9968V13.3224H116.975V13.3747C116.96 13.5482 116.982 13.7229 117.04 13.8874C117.097 14.052 117.189 14.2029 117.31 14.3304C117.43 14.458 117.576 14.5593 117.739 14.628C117.902 14.6967 118.077 14.7311 118.254 14.7292C118.481 14.756 118.71 14.7158 118.914 14.6137C119.117 14.5117 119.285 14.3523 119.396 14.156L120.309 14.156ZM116.975 12.6323H119.401C119.413 12.4736 119.391 12.3142 119.336 12.1644C119.282 12.0145 119.196 11.8775 119.085 11.7622C118.974 11.6468 118.839 11.5557 118.69 11.4946C118.541 11.4335 118.38 11.4038 118.218 11.4075C118.054 11.4055 117.892 11.4358 117.74 11.4966C117.588 11.5574 117.45 11.6476 117.334 11.7617C117.218 11.8759 117.127 12.0117 117.065 12.1612C117.003 12.3108 116.972 12.4709 116.975 12.6323Z" fill="white"/>
</g>
<defs>
<clipPath id="clip0_5_146">
<rect width="144" height="42" fill="white"/>
</clipPath>
</defs>
</svg>
