<svg width="145" height="42" viewBox="0 0 145 42" fill="none" xmlns="http://www.w3.org/2000/svg">
<g clip-path="url(#clip0_5_130)">
<path d="M139.63 0H5.37037C2.4044 0 0 2.35049 0 5.24997V36.7498C0 39.6493 2.4044 41.9998 5.37037 41.9998H139.63C142.596 41.9998 145 39.6493 145 36.7498V5.24997C145 2.35049 142.596 0 139.63 0Z" fill="#191919"/>
<path d="M139.63 0.839984C140.826 0.841335 141.972 1.30642 142.818 2.13321C143.664 2.96 144.139 4.08096 144.141 5.25017V36.75C144.139 37.9192 143.664 39.0402 142.818 39.867C141.972 40.6937 140.826 41.1588 139.63 41.1602H5.37037C4.17434 41.1589 3.02768 40.6938 2.18198 39.867C1.33628 39.0402 0.860581 37.9192 0.859259 36.75V5.25017C0.860561 4.08095 1.33625 2.95997 2.18196 2.13318C3.02767 1.30639 4.17433 0.841313 5.37037 0.839984H139.63ZM139.63 0.000198364H5.37037C3.94734 0.00427035 2.58378 0.558699 1.57755 1.54238C0.571308 2.52606 0.00416536 3.85905 0 5.25017L0 36.75C0.00416536 38.1411 0.571308 39.4741 1.57755 40.4578C2.58378 41.4415 3.94734 41.9959 5.37037 42H139.63C141.053 41.9959 142.416 41.4415 143.422 40.4578C144.429 39.4741 144.996 38.1411 145 36.75V5.25017C144.996 3.85905 144.429 2.52606 143.422 1.54238C142.416 0.558699 141.053 0.00427035 139.63 0.000198364Z" fill="#A6A6A6"/>
<path d="M50.9309 10.7554C50.9504 11.1407 50.8895 11.5258 50.7519 11.8874C50.6143 12.2489 50.4029 12.5793 50.1305 12.8584C49.8252 13.1679 49.4565 13.411 49.0486 13.5716C48.6406 13.7322 48.2026 13.8068 47.7631 13.7905C47.3208 13.7944 46.8822 13.7118 46.473 13.5476C46.0639 13.3834 45.6924 13.1409 45.3805 12.8343C45.0686 12.5278 44.8225 12.1633 44.6567 11.7625C44.4909 11.3616 44.4088 10.9324 44.4151 10.5001C44.4088 10.0677 44.491 9.63848 44.6568 9.23761C44.8226 8.83674 45.0687 8.47231 45.3806 8.16572C45.6925 7.85913 46.0639 7.61657 46.4731 7.45228C46.8822 7.28799 47.3208 7.2053 47.7631 7.20905C48.2178 7.20771 48.668 7.29759 49.0858 7.47313C49.4738 7.62689 49.8192 7.86808 50.0938 8.17704L49.5274 8.73123C49.3115 8.48286 49.0402 8.28628 48.7343 8.15668C48.4284 8.02708 48.0961 7.96791 47.7631 7.98374C47.4279 7.98204 47.0958 8.0465 46.7867 8.17325C46.4776 8.29999 46.1978 8.48642 45.9641 8.72137C45.7305 8.95632 45.5477 9.23495 45.4268 9.54058C45.3059 9.84621 45.2493 10.1725 45.2605 10.5001C45.2525 10.9906 45.3937 11.4724 45.6662 11.8844C45.9387 12.2964 46.3302 12.62 46.7911 12.8142C47.252 13.0084 47.7615 13.0645 48.2549 12.9752C48.7484 12.886 49.2037 12.6555 49.563 12.313C49.8937 11.9646 50.0854 11.5117 50.1032 11.0368H47.7631V10.2801H50.8858C50.9153 10.4369 50.9304 10.596 50.9309 10.7554Z" fill="white"/>
<path d="M55.8816 8.12423H52.9468V10.1216H55.5932V10.8785H52.9468V12.8759H55.8816V13.65H52.1192V7.35007H55.8816V8.12423Z" fill="white"/>
<path d="M59.3734 13.65H58.5448V8.12423H56.7448V7.35007H61.1733V8.12423H59.3734V13.65Z" fill="white"/>
<path d="M64.3777 13.65V7.35007H65.2053V13.65H64.3777Z" fill="white"/>
<path d="M68.8785 13.65H68.0499V8.12423H66.2501V7.35007H70.6785V8.12423H68.8785V13.65Z" fill="white"/>
<path d="M79.0618 12.8359C78.4346 13.4472 77.5849 13.7905 76.6992 13.7905C75.8134 13.7905 74.9638 13.4472 74.3366 12.8359C74.0262 12.5286 73.7823 12.1635 73.6192 11.7622C73.4561 11.3609 73.3773 10.9317 73.3873 10.5001C73.3773 10.0684 73.4561 9.63915 73.6192 9.23788C73.7823 8.83661 74.0262 8.47149 74.3366 8.16423C74.6466 7.86106 75.0148 7.62065 75.42 7.45675C75.8252 7.29284 76.2595 7.20867 76.698 7.20905C77.1365 7.20943 77.5706 7.29436 77.9755 7.45896C78.3804 7.62357 78.7482 7.86462 79.0576 8.16833C79.3682 8.47478 79.6126 8.83908 79.7764 9.23962C79.9402 9.64016 80.02 10.0688 80.0111 10.5001C80.0209 10.9317 79.9418 11.3608 79.7788 11.7621C79.6157 12.1633 79.3719 12.5285 79.0618 12.8359ZM74.948 12.3084C75.4126 12.7617 76.0422 13.0164 76.6987 13.0164C77.3551 13.0164 77.9847 12.7617 78.4493 12.3084C78.6875 12.0699 78.8738 11.7867 78.997 11.4759C79.1201 11.1651 79.1775 10.8332 79.1657 10.5001C79.1775 10.167 79.1201 9.83497 78.997 9.52416C78.8738 9.21336 78.6875 8.93018 78.4493 8.69175C77.9847 8.23837 77.3551 7.98373 76.6987 7.98373C76.0422 7.98373 75.4126 8.23837 74.948 8.69175C74.7101 8.93037 74.5241 9.21361 74.4012 9.52438C74.2782 9.83516 74.2209 10.167 74.2327 10.5001C74.2209 10.8331 74.2782 11.1649 74.4012 11.4757C74.5241 11.7865 74.7101 12.0697 74.948 12.3084Z" fill="white"/>
<path d="M81.1732 13.65V7.35007H82.1813L85.3133 12.2509H85.3489L85.3133 11.0368V7.35007H86.1419V13.65H85.2776L82.0008 8.51178H81.9652L82.0008 9.72589V13.65H81.1732Z" fill="white"/>
<path d="M50.9309 10.7554C50.9504 11.1407 50.8895 11.5258 50.7519 11.8874C50.6143 12.2489 50.4029 12.5793 50.1305 12.8584C49.8252 13.1679 49.4565 13.411 49.0486 13.5716C48.6406 13.7322 48.2026 13.8068 47.7631 13.7905C47.3208 13.7944 46.8822 13.7118 46.473 13.5476C46.0639 13.3834 45.6924 13.1409 45.3805 12.8343C45.0686 12.5278 44.8225 12.1633 44.6567 11.7625C44.4909 11.3616 44.4088 10.9324 44.4151 10.5001C44.4088 10.0677 44.491 9.63848 44.6568 9.23761C44.8226 8.83674 45.0687 8.47231 45.3806 8.16572C45.6925 7.85913 46.0639 7.61657 46.4731 7.45228C46.8822 7.28799 47.3208 7.2053 47.7631 7.20905C48.2178 7.20771 48.668 7.29759 49.0858 7.47313C49.4738 7.62689 49.8192 7.86808 50.0938 8.17704L49.5274 8.73123C49.3115 8.48286 49.0402 8.28628 48.7343 8.15668C48.4284 8.02708 48.0961 7.96791 47.7631 7.98374C47.4279 7.98204 47.0958 8.0465 46.7867 8.17325C46.4776 8.29999 46.1978 8.48642 45.9641 8.72137C45.7305 8.95632 45.5477 9.23495 45.4268 9.54058C45.3059 9.84621 45.2493 10.1725 45.2605 10.5001C45.2525 10.9906 45.3937 11.4724 45.6662 11.8844C45.9387 12.2964 46.3302 12.62 46.7911 12.8142C47.252 13.0084 47.7615 13.0645 48.2549 12.9752C48.7484 12.886 49.2037 12.6555 49.563 12.313C49.8937 11.9646 50.0854 11.5117 50.1032 11.0368H47.7631V10.2801H50.8858C50.9153 10.4369 50.9304 10.596 50.9309 10.7554Z" stroke="white" stroke-width="0.2" stroke-miterlimit="10"/>
<path d="M55.8816 8.12423H52.9468V10.1216H55.5932V10.8785H52.9468V12.8759H55.8816V13.65H52.1192V7.35007H55.8816V8.12423Z" stroke="white" stroke-width="0.2" stroke-miterlimit="10"/>
<path d="M59.3734 13.65H58.5448V8.12423H56.7448V7.35007H61.1733V8.12423H59.3734V13.65Z" stroke="white" stroke-width="0.2" stroke-miterlimit="10"/>
<path d="M64.3777 13.65V7.35007H65.2053V13.65H64.3777Z" stroke="white" stroke-width="0.2" stroke-miterlimit="10"/>
<path d="M68.8785 13.65H68.0499V8.12423H66.2501V7.35007H70.6785V8.12423H68.8785V13.65Z" stroke="white" stroke-width="0.2" stroke-miterlimit="10"/>
<path d="M79.0618 12.8359C78.4346 13.4472 77.5849 13.7905 76.6992 13.7905C75.8134 13.7905 74.9638 13.4472 74.3366 12.8359C74.0262 12.5286 73.7823 12.1635 73.6192 11.7622C73.4561 11.3609 73.3773 10.9317 73.3873 10.5001C73.3773 10.0684 73.4561 9.63915 73.6192 9.23788C73.7823 8.83661 74.0262 8.47149 74.3366 8.16423C74.6466 7.86106 75.0148 7.62065 75.42 7.45675C75.8252 7.29284 76.2595 7.20867 76.698 7.20905C77.1365 7.20943 77.5706 7.29436 77.9755 7.45896C78.3804 7.62357 78.7482 7.86462 79.0576 8.16833C79.3682 8.47478 79.6126 8.83908 79.7764 9.23962C79.9402 9.64016 80.02 10.0688 80.0111 10.5001C80.0209 10.9317 79.9418 11.3608 79.7788 11.7621C79.6157 12.1633 79.3719 12.5285 79.0618 12.8359ZM74.948 12.3084C75.4126 12.7617 76.0422 13.0164 76.6987 13.0164C77.3551 13.0164 77.9847 12.7617 78.4493 12.3084C78.6875 12.0699 78.8738 11.7867 78.997 11.4759C79.1201 11.1651 79.1775 10.8332 79.1657 10.5001C79.1775 10.167 79.1201 9.83497 78.997 9.52416C78.8738 9.21336 78.6875 8.93018 78.4493 8.69175C77.9847 8.23837 77.3551 7.98373 76.6987 7.98373C76.0422 7.98373 75.4126 8.23837 74.948 8.69175C74.7101 8.93037 74.5241 9.21361 74.4012 9.52438C74.2782 9.83516 74.2209 10.167 74.2327 10.5001C74.2209 10.8331 74.2782 11.1649 74.4012 11.4757C74.5241 11.7865 74.7101 12.0697 74.948 12.3084Z" stroke="white" stroke-width="0.2" stroke-miterlimit="10"/>
<path d="M81.1732 13.65V7.35007H82.1813L85.3133 12.2509H85.3489L85.3133 11.0368V7.35007H86.1419V13.65H85.2776L82.0008 8.51178H81.9652L82.0008 9.72589V13.65H81.1732Z" stroke="white" stroke-width="0.2" stroke-miterlimit="10"/>
<path d="M73.1829 22.8392C72.2801 22.8425 71.3986 23.1073 70.6497 23.6C69.9007 24.0928 69.3179 24.7914 68.9748 25.6077C68.6317 26.424 68.5437 27.3214 68.7219 28.1866C68.9001 29.0518 69.3366 29.8459 69.9761 30.4688C70.6157 31.0916 71.4297 31.5153 72.3154 31.6862C73.2011 31.8571 74.1187 31.7677 74.9524 31.4292C75.7862 31.0907 76.4986 30.5183 76.9998 29.7842C77.501 29.0502 77.7684 28.1874 77.7684 27.3049C77.7773 26.7146 77.6646 26.1286 77.4371 25.5818C77.2096 25.0349 76.8719 24.5384 76.444 24.1218C76.0162 23.7051 75.507 23.3769 74.9468 23.1565C74.3865 22.9362 73.7867 22.8282 73.1829 22.8392ZM73.1829 30.0115C72.6269 30.0502 72.0719 29.9244 71.5901 29.6505C71.1083 29.3766 70.722 28.9672 70.4815 28.4756C70.241 27.9841 70.1575 27.4331 70.2418 26.8945C70.3261 26.3559 70.5744 25.8546 70.9542 25.4558C71.3341 25.0571 71.8279 24.7793 72.3715 24.6588C72.9151 24.5383 73.4832 24.5805 74.0018 24.78C74.5205 24.9795 74.9657 25.3271 75.2795 25.7774C75.5933 26.2278 75.7611 26.76 75.7611 27.3049C75.778 27.6491 75.7242 27.9932 75.603 28.3168C75.4818 28.6404 75.2956 28.9371 75.0554 29.1893C74.8151 29.4415 74.5257 29.6441 74.2041 29.7853C73.8826 29.9266 73.5353 30.0034 73.1829 30.0115ZM63.1796 22.8392C62.2768 22.8425 61.3953 23.1072 60.6463 23.6C59.8974 24.0927 59.3145 24.7913 58.9714 25.6076C58.6283 26.4239 58.5403 27.3213 58.7185 28.1865C58.8967 29.0517 59.3331 29.8459 59.9727 30.4687C60.6123 31.0916 61.4263 31.5152 62.312 31.6862C63.1976 31.8571 64.1153 31.7677 64.949 31.4292C65.7828 31.0907 66.4952 30.5183 66.9964 29.7842C67.4976 29.0502 67.7651 28.1874 67.7651 27.3049C67.7739 26.7146 67.6613 26.1286 67.4337 25.5818C67.2062 25.035 66.8685 24.5384 66.4407 24.1218C66.0129 23.7052 65.5037 23.3769 64.9435 23.1565C64.3832 22.9362 63.7834 22.8283 63.1796 22.8392ZM63.1796 30.0115C62.6236 30.0502 62.0686 29.9244 61.5868 29.6505C61.105 29.3766 60.7187 28.9672 60.4782 28.4756C60.2377 27.9841 60.1542 27.4331 60.2385 26.8945C60.3229 26.3559 60.5711 25.8546 60.9509 25.4558C61.3308 25.0571 61.8246 24.7793 62.3682 24.6588C62.9118 24.5383 63.4799 24.5805 63.9986 24.78C64.5172 24.9795 64.9624 25.3271 65.2762 25.7774C65.59 26.2278 65.7578 26.76 65.7578 27.3049C65.7747 27.6491 65.721 27.9932 65.5998 28.3168C65.4786 28.6404 65.2924 28.9371 65.0521 29.1893C64.8119 29.4415 64.5224 29.6442 64.2009 29.7854C63.8793 29.9266 63.532 30.0034 63.1796 30.0115ZM51.2802 24.2094V26.1039H55.9177C55.8508 26.9925 55.4788 27.833 54.8621 28.4891C54.3974 28.9522 53.8385 29.3149 53.2215 29.5538C52.6046 29.7927 51.9432 29.9025 51.2802 29.8761C49.9247 29.8582 48.6309 29.3192 47.6788 28.3758C46.7268 27.4324 46.193 26.1604 46.193 24.8352C46.193 23.51 46.7268 22.238 47.6788 21.2946C48.6309 20.3512 49.9247 19.8122 51.2802 19.7943C52.5822 19.7777 53.8383 20.264 54.7756 21.1475L56.1426 19.8112C55.5031 19.1922 54.7435 18.7043 53.9086 18.3761C53.0736 18.0478 52.18 17.8859 51.2802 17.8997C50.3398 17.8863 49.4061 18.0558 48.5333 18.3983C47.6606 18.7409 46.8662 19.2496 46.1964 19.895C45.5265 20.5403 44.9946 21.3094 44.6316 22.1575C44.2685 23.0056 44.0815 23.9158 44.0815 24.8352C44.0815 25.7546 44.2685 26.6648 44.6316 27.5129C44.9946 28.361 45.5265 29.1301 46.1964 29.7755C46.8662 30.4208 47.6606 30.9295 48.5333 31.2721C49.4061 31.6146 50.3398 31.7841 51.2802 31.7707C52.199 31.808 53.1154 31.6538 53.9686 31.3184C54.8219 30.983 55.5924 30.4741 56.2291 29.8254C57.3594 28.6192 57.9619 27.0285 57.9076 25.3935C57.9121 24.9964 57.8772 24.5999 57.8037 24.2094H51.2802ZM99.9446 25.681C99.6701 24.8721 99.1475 24.1654 98.4478 23.657C97.7482 23.1486 96.9054 22.863 96.0339 22.8392C95.447 22.8427 94.8669 22.9626 94.3287 23.1915C93.7905 23.4205 93.3053 23.7537 92.9026 24.1712C92.4999 24.5886 92.1879 25.0815 91.9856 25.6201C91.7832 26.1587 91.6947 26.7319 91.7254 27.3049C91.7122 27.892 91.8201 28.4758 92.0428 29.0212C92.2655 29.5666 92.5984 30.0626 93.0216 30.4794C93.4448 30.8963 93.9495 31.2255 94.5058 31.4473C95.062 31.6692 95.6583 31.7792 96.2589 31.7707C97.0115 31.7748 97.7533 31.5961 98.4177 31.2507C99.0822 30.9052 99.6484 30.4039 100.066 29.7916L98.5084 28.7767C98.2751 29.1554 97.9451 29.4684 97.5507 29.6849C97.1564 29.9014 96.7112 30.0139 96.2589 30.0115C95.7935 30.0289 95.3335 29.9092 94.9386 29.6679C94.5436 29.4266 94.232 29.0748 94.044 28.6582L100.152 26.1885L99.9446 25.681ZM93.7153 27.1697C93.6938 26.8446 93.7388 26.5187 93.8477 26.2108C93.9566 25.903 94.1273 25.6195 94.3496 25.377C94.572 25.1344 94.8416 24.9376 95.1426 24.7981C95.4437 24.6586 95.7703 24.5792 96.1031 24.5646C96.4497 24.5423 96.7953 24.6203 97.0969 24.7887C97.3985 24.9572 97.6426 25.2087 97.799 25.5119L93.7153 27.1697ZM88.749 31.5001H90.7563V18.3734H88.749V31.5001ZM85.4613 23.8372H85.3921C85.0869 23.5131 84.7145 23.2564 84.2997 23.0843C83.8849 22.9121 83.4373 22.8286 82.9868 22.8392C81.8089 22.8882 80.6959 23.3801 79.8801 24.2122C79.0643 25.0444 78.6089 26.1524 78.6089 27.305C78.6089 28.4575 79.0643 29.5655 79.8801 30.3977C80.6959 31.2298 81.8089 31.7217 82.9868 31.7707C83.4391 31.7825 83.8886 31.6978 84.3039 31.5225C84.7193 31.3473 85.0907 31.0856 85.3921 30.7558H85.4613V31.3986C85.4613 33.1072 84.5269 34.0206 83.0214 34.0206C82.5197 34.0088 82.0329 33.8513 81.623 33.5681C81.2132 33.285 80.8989 32.8889 80.7201 32.4304L78.9724 33.141C79.3018 33.925 79.8631 34.595 80.5845 35.0651C81.3059 35.5353 82.1544 35.7841 83.0214 35.7798C85.3748 35.7798 87.3648 34.4266 87.3648 31.1279V23.1098H85.4613V23.8372ZM83.16 30.0115C82.4662 29.954 81.8198 29.6439 81.3487 29.1427C80.8776 28.6415 80.6162 27.9856 80.6162 27.305C80.6162 26.6243 80.8776 25.9684 81.3487 25.4672C81.8198 24.966 82.4662 24.6559 83.16 24.5984C83.5051 24.6149 83.8434 24.6992 84.1545 24.8461C84.4657 24.9931 84.7433 25.1999 84.971 25.454C85.1987 25.7081 85.3717 26.0045 85.4797 26.3254C85.5877 26.6463 85.6285 26.9852 85.5997 27.3218C85.6267 27.6564 85.5844 27.9928 85.4753 28.311C85.3662 28.6292 85.1926 28.9227 84.9648 29.1737C84.7371 29.4248 84.4598 29.6285 84.1497 29.7724C83.8396 29.9163 83.503 29.9976 83.16 30.0115ZM109.347 18.3736H104.545V31.5001H106.548V26.5269H109.347C109.914 26.5572 110.481 26.4743 111.014 26.2832C111.547 26.092 112.034 25.7967 112.447 25.4151C112.859 25.0336 113.187 24.5739 113.412 24.0641C113.636 23.5544 113.752 23.0052 113.752 22.4503C113.752 21.8953 113.636 21.3461 113.412 20.8364C113.187 20.3266 112.859 19.8669 112.447 19.4854C112.034 19.1038 111.547 18.8085 111.014 18.6173C110.481 18.4262 109.914 18.3433 109.347 18.3736ZM109.399 24.7001H106.548V20.2005H109.399C109.705 20.1943 110.009 20.2479 110.294 20.3582C110.579 20.4685 110.838 20.6332 111.057 20.8427C111.276 21.0523 111.45 21.3024 111.568 21.5784C111.687 21.8545 111.748 22.1509 111.748 22.4503C111.748 22.7497 111.687 23.0462 111.568 23.3222C111.45 23.5982 111.276 23.8483 111.057 24.0579C110.838 24.2674 110.579 24.4321 110.294 24.5424C110.009 24.6527 109.705 24.7063 109.399 24.7001ZM121.785 22.815C121.053 22.7733 120.325 22.9412 119.69 23.2982C119.055 23.6552 118.54 24.1857 118.209 24.8246L119.988 25.5508C120.164 25.2337 120.432 24.9737 120.757 24.8027C121.082 24.6317 121.451 24.5572 121.819 24.5881C122.328 24.5396 122.835 24.6901 123.23 25.0067C123.625 25.3232 123.876 25.78 123.927 26.2769V26.412C123.283 26.0777 122.565 25.9037 121.836 25.9054C119.919 25.9054 117.967 26.9355 117.967 28.8607C117.986 29.2664 118.087 29.6643 118.266 30.0309C118.445 30.3974 118.698 30.725 119.009 30.9944C119.32 31.2637 119.683 31.4692 120.077 31.5988C120.47 31.7283 120.887 31.7792 121.301 31.7484C121.805 31.7774 122.309 31.6737 122.758 31.4479C123.208 31.2222 123.588 30.8828 123.858 30.465H123.927V31.4782H125.861V26.4458C125.861 24.1153 124.082 22.815 121.785 22.815ZM121.543 30.009C120.886 30.009 119.971 29.6882 119.971 28.8944C119.971 27.8812 121.111 27.4927 122.096 27.4927C122.735 27.4761 123.368 27.6278 123.927 27.9319C123.853 28.5012 123.571 29.0252 123.133 29.4071C122.695 29.7889 122.13 30.0027 121.543 30.009ZM132.909 23.1021L130.612 28.7931H130.543L128.159 23.1021H126L129.575 31.056L127.537 35.4805H129.627L135.138 23.1021H132.909ZM114.858 31.5001H116.861V18.3736H114.858V31.5001Z" fill="white"/>
<path d="M11.2083 7.91497C10.8561 8.32664 10.6782 8.85439 10.7112 9.3901V32.6119C10.6782 33.1476 10.856 33.6754 11.2083 34.087L11.2878 34.1627L24.5945 21.1545V20.8475L11.2878 7.83874L11.2083 7.91497Z" fill="url(#paint0_linear_5_130)"/>
<path d="M29.0298 25.4924L24.5945 21.1545V20.8475L29.0308 16.5106L29.1308 16.5664L34.3861 19.4855C35.8872 20.3192 35.8872 21.6833 34.3861 22.5176L29.1308 25.4366L29.0298 25.4924Z" fill="url(#paint1_linear_5_130)"/>
<path d="M29.1308 25.4361L24.5945 21.0011L11.2083 34.087C11.5141 34.3507 11.9047 34.5016 12.3124 34.5133C12.72 34.5251 13.1191 34.3971 13.4403 34.1515L29.1308 25.4361Z" fill="url(#paint2_linear_5_130)"/>
<path d="M29.1308 16.5659L13.4403 7.8505C13.1191 7.6049 12.72 7.47689 12.3124 7.48867C11.9047 7.50044 11.5141 7.65125 11.2083 7.91497L24.5945 21.0011L29.1308 16.5659Z" fill="url(#paint3_linear_5_130)"/>
<path opacity="0.2" d="M29.0308 25.3385L13.4403 33.9981C13.1314 34.228 12.7544 34.3534 12.3662 34.3554C11.978 34.3574 11.5997 34.236 11.2883 34.0093L11.2083 34.0876L11.2878 34.1633L11.2883 34.1627C11.5996 34.3895 11.978 34.511 12.3662 34.509C12.7545 34.507 13.1315 34.3815 13.4403 34.1515L29.1308 25.4361L29.0308 25.3385Z" fill="#191919"/>
<path opacity="0.12" d="M11.2083 33.9342C10.8561 33.5225 10.6783 32.9947 10.7112 32.459V32.6124C10.6783 33.1481 10.8561 33.6759 11.2083 34.0876L11.2883 34.0093L11.2083 33.9342Z" fill="#191919"/>
<path opacity="0.12" d="M34.386 22.3636L29.0308 25.3385L29.1308 25.4361L34.386 22.517C34.6952 22.3859 34.9627 22.1761 35.1607 21.9096C35.3587 21.643 35.4801 21.3294 35.512 21.0015C35.4456 21.2985 35.3092 21.5762 35.1137 21.8127C34.9183 22.0491 34.6691 22.2378 34.386 22.3636Z" fill="#191919"/>
<path opacity="0.25" d="M13.4403 8.00443L34.3861 19.6384C34.6692 19.7642 34.9185 19.9529 35.114 20.1895C35.3094 20.426 35.4457 20.7039 35.512 21.0011C35.4803 20.673 35.3591 20.3592 35.161 20.0926C34.963 19.8259 34.6953 19.616 34.3861 19.485L13.4403 7.85102C11.9392 7.01722 10.7112 7.7098 10.7112 9.39063V9.54403C10.7112 7.86331 11.9392 7.17073 13.4403 8.00443Z" fill="white"/>
</g>
<defs>
<linearGradient id="paint0_linear_5_130" x1="23.4144" y1="9.14526" x2="5.79752" y2="27.1662" gradientUnits="userSpaceOnUse">
<stop stop-color="#00A0FF"/>
<stop offset="0.00657" stop-color="#00A1FF"/>
<stop offset="0.2601" stop-color="#00BEFF"/>
<stop offset="0.5122" stop-color="#00D2FF"/>
<stop offset="0.7604" stop-color="#00DFFF"/>
<stop offset="1" stop-color="#00E3FF"/>
</linearGradient>
<linearGradient id="paint1_linear_5_130" x1="36.3405" y1="21.0015" x2="10.3513" y2="21.0015" gradientUnits="userSpaceOnUse">
<stop stop-color="#FFE000"/>
<stop offset="0.4087" stop-color="#FFBD00"/>
<stop offset="0.7754" stop-color="#FFA500"/>
<stop offset="1" stop-color="#FF9C00"/>
</linearGradient>
<linearGradient id="paint2_linear_5_130" x1="26.6659" y1="23.4109" x2="2.77594" y2="47.8487" gradientUnits="userSpaceOnUse">
<stop stop-color="#FF3A44"/>
<stop offset="1" stop-color="#C31162"/>
</linearGradient>
<linearGradient id="paint3_linear_5_130" x1="7.83776" y1="0.185093" x2="18.5056" y2="11.0976" gradientUnits="userSpaceOnUse">
<stop stop-color="#32A071"/>
<stop offset="0.0685" stop-color="#2DA771"/>
<stop offset="0.4762" stop-color="#15CF74"/>
<stop offset="0.8009" stop-color="#06E775"/>
<stop offset="1" stop-color="#00F076"/>
</linearGradient>
<clipPath id="clip0_5_130">
<rect width="145" height="42" fill="white"/>
</clipPath>
</defs>
</svg>
