<svg width="93" height="48" viewBox="0 0 93 48" fill="none" xmlns="http://www.w3.org/2000/svg">
<g clip-path="url(#clip0_5_87)">
<path d="M0 12C0 5.37258 5.37258 0 12 0H81C87.6274 0 93 5.37258 93 12V36C93 42.6274 87.6274 48 81 48H12C5.37258 48 0 42.6274 0 36V12Z" fill="#355DEE"/>
<path d="M17.4354 29.2756H14.6758V31.9995H17.4354V29.2756Z" fill="#47FFC8"/>
<path d="M28.4272 29.4272C27.5584 29.4272 26.7816 29.1952 26.0968 28.7311C25.4018 28.267 24.8601 27.6415 24.4717 26.8446C24.0833 26.0577 23.8789 25.18 23.8789 24.2317C23.8789 23.2834 24.0731 22.4258 24.4717 21.6289C24.8601 20.842 25.412 20.2064 26.0968 19.7423C26.7816 19.2783 27.5584 19.0462 28.4068 19.0462C28.8871 19.0462 29.3369 19.1068 29.7559 19.2278C30.175 19.3489 30.5429 19.5305 30.8598 19.7625C31.1766 19.9945 31.4424 20.277 31.6366 20.6099V19.3691H34.4167V29.1144H31.6161V27.8837C31.4219 28.2166 31.1562 28.489 30.8393 28.721C30.5225 28.953 30.1545 29.1346 29.7457 29.2557C29.3471 29.3767 28.8974 29.4272 28.4272 29.4272ZM29.1427 26.7638C29.5924 26.7638 29.991 26.6529 30.359 26.4309C30.7167 26.2191 31.0029 25.9063 31.2175 25.5129C31.4219 25.1295 31.5241 24.6957 31.5241 24.2317C31.5241 23.7676 31.4219 23.3439 31.2073 22.9605C31.0029 22.5772 30.7167 22.2745 30.3487 22.0425C29.991 21.8205 29.5924 21.6995 29.1529 21.6995C28.7134 21.6995 28.325 21.8004 27.957 22.0021C27.5891 22.2039 27.3131 22.4965 27.0985 22.8798C26.8941 23.2632 26.7816 23.7071 26.7816 24.2216C26.7816 24.7361 26.8839 25.2001 27.0985 25.5835C27.3131 25.9669 27.5993 26.2493 27.957 26.4511C28.3148 26.663 28.7134 26.7638 29.1427 26.7638Z" fill="white"/>
<path d="M35.229 27.3596L39.7773 21.7908H35.4641V19.3595H43.7737V21.1351L39.2765 26.6736H43.9985V29.1049H35.2188V27.3596H35.229Z" fill="white"/>
<path d="M45 16.3227H50.6215C51.5209 16.3227 52.3182 16.5144 53.0336 16.8877C53.7389 17.271 54.301 17.7956 54.6996 18.4716C55.0983 19.1475 55.3027 19.9041 55.3027 20.7414C55.3027 21.6393 55.1085 22.4363 54.7099 23.1324C54.3215 23.8285 53.7695 24.3531 53.0541 24.7364C52.3488 25.1198 51.5516 25.3014 50.6624 25.3014H48.0356V29.0946H45.0102L45 16.3227ZM50.4988 22.6784C50.8259 22.6784 51.1223 22.5977 51.3881 22.4262C51.6538 22.2547 51.8787 22.0227 52.032 21.7301C52.1955 21.4375 52.2671 21.1147 52.2671 20.7616C52.2671 20.4691 52.1853 20.1765 52.032 19.9041C51.8684 19.6317 51.6538 19.4098 51.3881 19.2383C51.1223 19.0668 50.8157 18.9861 50.4988 18.9861H48.0254V22.6885L50.4988 22.6784Z" fill="white"/>
<path d="M60.7785 29.4277C59.7768 29.4277 58.8774 29.1957 58.0802 28.7316C57.2829 28.2675 56.6595 27.6421 56.2097 26.8552C55.76 26.0683 55.5352 25.1906 55.5352 24.2423C55.5352 23.294 55.7498 22.4364 56.1995 21.6395C56.6492 20.8526 57.2727 20.217 58.0699 19.7529C58.8672 19.2889 59.7768 19.0568 60.7887 19.0568C61.8006 19.0568 62.7205 19.2889 63.5177 19.7529C64.3149 20.217 64.9486 20.8425 65.3983 21.6395C65.848 22.4264 66.0729 23.294 66.0729 24.2423C66.0729 25.1805 65.848 26.0683 65.3983 26.8552C64.9486 27.6421 64.3251 28.2675 63.5177 28.7316C62.7102 29.1957 61.8006 29.4277 60.7785 29.4277ZM60.7989 26.7543C61.2589 26.7543 61.6677 26.6534 62.0152 26.4314C62.3627 26.2095 62.6489 25.9169 62.8533 25.5437C63.0577 25.1603 63.16 24.7265 63.16 24.2423C63.16 23.758 63.0577 23.3141 62.8533 22.9409C62.6489 22.5575 62.3729 22.2649 62.0152 22.0531C61.6575 21.8412 61.2589 21.7303 60.7989 21.7303C60.339 21.7303 59.9301 21.8311 59.5724 22.0531C59.2147 22.2649 58.9285 22.5676 58.7343 22.9409C58.5299 23.3242 58.4277 23.758 58.4277 24.2423C58.4277 24.7265 58.5299 25.1704 58.7343 25.5538C58.9387 25.9371 59.2147 26.2297 59.5724 26.4415C59.9404 26.6433 60.3492 26.7543 60.7989 26.7543Z" fill="white"/>
<path d="M71.0689 29.4277C70.1082 29.4277 69.3007 29.2663 68.6466 28.9334C67.9925 28.6005 67.5019 28.1667 67.185 27.6421C66.8682 27.1074 66.7148 26.5324 66.7148 25.917L69.5256 25.9371C69.546 26.1793 69.6074 26.3911 69.73 26.5727C69.8424 26.7543 70.0162 26.8955 70.2513 26.9964C70.4864 27.0973 70.7623 27.1478 71.0996 27.1478C71.4062 27.1478 71.6515 27.1175 71.8457 27.0368C72.0399 26.9561 72.183 26.8653 72.2648 26.7341C72.3466 26.603 72.3977 26.4517 72.3977 26.2701C72.3977 26.0885 72.3363 25.9271 72.2137 25.8161C72.091 25.695 71.9071 25.6042 71.672 25.5437C71.4267 25.4731 71.0996 25.4126 70.6908 25.352C69.9855 25.2612 69.3621 25.0998 68.8306 24.8678C68.2991 24.6357 67.8698 24.2927 67.5632 23.8589C67.2463 23.415 67.093 22.8703 67.093 22.2145C67.093 21.5588 67.2463 20.9938 67.553 20.5197C67.8596 20.0455 68.2991 19.6823 68.8919 19.4402C69.4745 19.188 70.1797 19.067 70.9974 19.067C71.8151 19.067 72.5305 19.2082 73.154 19.4806C73.7877 19.753 74.2681 20.1464 74.6258 20.6508C74.9733 21.1553 75.1471 21.7303 75.1471 22.3759L72.275 22.3558C72.2546 22.1742 72.1932 22.0128 72.1115 21.8715C72.0195 21.7202 71.8764 21.6092 71.6924 21.5285C71.5085 21.4478 71.2734 21.4075 71.0076 21.4075C70.7725 21.4075 70.5783 21.4377 70.425 21.5083C70.2717 21.5689 70.1593 21.6597 70.0877 21.7706C70.0162 21.8816 69.9855 22.0027 69.9855 22.154C69.9855 22.3457 70.0264 22.4869 70.1082 22.5878C70.19 22.6887 70.3535 22.7795 70.5886 22.84C70.8236 22.9106 71.2223 22.9913 71.764 23.062C71.8253 23.072 71.8968 23.0821 71.9684 23.0922C72.0399 23.1023 72.1013 23.1124 72.1728 23.1225C72.8985 23.2435 73.5015 23.4251 73.9615 23.6471C74.4316 23.8791 74.7894 24.1818 75.0449 24.5752C75.2902 24.9687 75.4231 25.4731 75.4231 26.0986C75.4231 26.835 75.2289 27.4504 74.8609 27.9447C74.493 28.4391 73.9717 28.8123 73.3278 29.0545C72.6839 29.2966 71.9479 29.4277 71.1098 29.4277H71.0689Z" fill="white"/>
<path d="M80.8119 29.1146C80.2088 29.1146 79.6569 29.0238 79.1561 28.8422C78.6553 28.6606 78.2464 28.2873 77.8989 27.7324C77.5514 27.1675 77.3776 26.3705 77.3776 25.3213V21.8408H75.4766V19.3793H77.3776V16.5646L80.3213 16.5444V19.3793H82.9991V21.8408H80.3315V25.4525C80.3315 25.7551 80.3826 25.9972 80.4848 26.1889C80.587 26.3806 80.7097 26.5218 80.8732 26.6025C81.0367 26.6833 81.2309 26.7337 81.4456 26.7337H82.9991V29.1246L80.8119 29.1146Z" fill="white"/>
<path d="M22.1543 19.329C21.5206 18.3101 20.6621 17.4929 19.5786 16.8977C18.5054 16.3025 17.33 15.9998 16.0524 15.9998C14.785 15.9998 13.5892 16.3025 12.516 16.8977C11.4326 17.4929 10.5842 18.3101 9.95054 19.329C9.31685 20.3479 9 21.4778 9 22.6884C9 23.9091 9.31685 25.0289 9.95054 26.0479C10.5842 27.0769 11.4326 27.8839 12.516 28.4892C13.1906 28.8625 13.9163 29.1248 14.6726 29.2661V26.4413C14.458 26.3606 14.2433 26.2698 14.0287 26.1588C13.4154 25.8259 12.9146 25.3518 12.5569 24.7465C12.1991 24.1411 12.0152 23.4652 12.0152 22.7086C12.0152 21.952 12.1889 21.266 12.5467 20.6607C12.9044 20.0554 13.395 19.5812 14.0082 19.2382C14.6215 18.8952 15.3063 18.7237 16.0524 18.7237C16.7986 18.7237 17.4629 18.8952 18.0864 19.2382C18.6996 19.5812 19.1902 20.0554 19.5582 20.6607C19.9159 21.266 20.0999 21.952 20.0999 22.7086C20.0999 23.4652 19.9262 24.1411 19.5582 24.7465C19.2005 25.3518 18.7099 25.8259 18.0864 26.1689C17.882 26.29 17.6571 26.3808 17.4322 26.4514V29.2761C18.1886 29.1349 18.9041 28.8726 19.5786 28.4993C20.6621 27.9041 21.5104 27.087 22.1543 26.0579C22.788 25.0289 23.1049 23.9091 23.1049 22.6985C23.1049 21.4879 22.788 20.3479 22.1543 19.329Z" fill="white"/>
</g>
<mask id="mask0_5_87" style="mask-type:alpha" maskUnits="userSpaceOnUse" x="0" y="0" width="93" height="48">
<path d="M0 12C0 5.37258 5.37258 0 12 0H81C87.6274 0 93 5.37258 93 12V36C93 42.6274 87.6274 48 81 48H12C5.37258 48 0 42.6274 0 36V12Z" fill="#355DEE"/>
</mask>
<g mask="url(#mask0_5_87)">
<g filter="url(#filter0_d_5_87)">
<path d="M64 5C64 3.89543 64.8954 3 66 3L93 3V13L66 13C64.8954 13 64 12.1046 64 11V5Z" fill="#A459B3" shape-rendering="crispEdges"/>
<path d="M68.4533 11V10.2391H70.2182C70.6283 10.2391 70.9387 10.1545 71.1492 9.98545C71.3596 9.81635 71.4649 9.57103 71.4649 9.24948V9.24116C71.4649 9.02495 71.4163 8.84477 71.3192 8.70062C71.222 8.55648 71.0763 8.44837 70.882 8.3763C70.6904 8.30146 70.4516 8.26403 70.1656 8.26403H68.4533V7.55301H69.9834C70.3855 7.55301 70.6891 7.47817 70.8942 7.32848C71.0992 7.17602 71.2018 6.95426 71.2018 6.6632V6.65489C71.2018 6.37214 71.1087 6.15315 70.9225 5.99792C70.7363 5.83992 70.4745 5.76091 70.1372 5.76091H68.4533V5H70.3518C70.716 5 71.0291 5.06098 71.2908 5.18295C71.5553 5.30492 71.7577 5.47817 71.898 5.7027C72.0383 5.92446 72.1085 6.1878 72.1085 6.49272V6.50104C72.1085 6.71171 72.0626 6.90852 71.9709 7.09148C71.8791 7.27166 71.7563 7.42412 71.6025 7.54886C71.4487 7.6736 71.2746 7.7526 71.0803 7.78586V7.85655C71.3448 7.88427 71.5755 7.96327 71.7725 8.09356C71.9695 8.22384 72.1233 8.39293 72.234 8.60083C72.3446 8.80596 72.3999 9.03881 72.3999 9.29938V9.30769C72.3999 9.65696 72.319 9.95911 72.1571 10.2141C71.9978 10.4664 71.7698 10.6604 71.473 10.7963C71.1761 10.9321 70.8199 11 70.4044 11H68.4533ZM68 11V5H68.9067V11H68Z" fill="white"/>
<path d="M73.5616 11V5L77.2694 5V5.80665L74.4683 5.80665V7.55717H77.1196V8.33056H74.4683V10.1933H77.2694V11H73.5616Z" fill="white"/>
<path d="M80.0623 11V5.80665H78.2247V5H82.8067V5.80665H80.969V11H80.0623Z" fill="white"/>
<path d="M82.8027 11L84.9116 5H85.6442V6.05198H85.369L83.7579 11H82.8027ZM83.8187 9.37838L84.0737 8.62994H86.7331L86.9881 9.37838H83.8187ZM87.0447 11L85.4378 6.05198V5H85.8952L88 11H87.0447Z" fill="white"/>
</g>
</g>
<defs>
<filter id="filter0_d_5_87" x="61" y="2" width="33" height="14" filterUnits="userSpaceOnUse" color-interpolation-filters="sRGB">
<feFlood flood-opacity="0" result="BackgroundImageFix"/>
<feColorMatrix in="SourceAlpha" type="matrix" values="0 0 0 0 0 0 0 0 0 0 0 0 0 0 0 0 0 0 127 0" result="hardAlpha"/>
<feOffset dx="-1" dy="1"/>
<feGaussianBlur stdDeviation="1"/>
<feComposite in2="hardAlpha" operator="out"/>
<feColorMatrix type="matrix" values="0 0 0 0 0 0 0 0 0 0 0 0 0 0 0 0 0 0 0.08 0"/>
<feBlend mode="normal" in2="BackgroundImageFix" result="effect1_dropShadow_5_87"/>
<feBlend mode="normal" in="SourceGraphic" in2="effect1_dropShadow_5_87" result="shape"/>
</filter>
<clipPath id="clip0_5_87">
<rect width="93" height="48" rx="12" fill="white"/>
</clipPath>
</defs>
</svg>
