<svg width="36" height="36" viewBox="0 0 36 36" fill="none" xmlns="http://www.w3.org/2000/svg">
<g clip-path="url(#clip0_2_316)">
<path d="M0 8C0 3.58172 3.58172 0 8 0H28C32.4183 0 36 3.58172 36 8V28C36 32.4183 32.4183 36 28 36H8C3.58172 36 0 32.4183 0 28V8Z" fill="#355DEE"/>
<path d="M19.9709 25.5835H16.0586V29.5001H19.9709V25.5835Z" fill="#47FFC8"/>
<path d="M26.6585 11.286C25.7557 9.82263 24.5433 8.64335 23.0128 7.79118C21.4909 6.93039 19.8228 6.5 18.0085 6.5C16.2029 6.5 14.5176 6.93039 12.9871 7.79118C11.4566 8.65196 10.2442 9.82263 9.34995 11.286C8.44712 12.7493 8 14.3676 8 16.1236C8 17.8882 8.44712 19.4892 9.34995 20.9612C10.2528 22.4417 11.4566 23.6038 12.9871 24.4646C13.9501 25.0069 14.9647 25.377 16.0395 25.575V21.5035C15.73 21.3916 15.429 21.2625 15.1281 21.0903C14.251 20.6083 13.5546 19.9369 13.0473 19.0589C12.5314 18.1895 12.282 17.2168 12.282 16.1322C12.282 15.0476 12.5314 14.0577 13.0387 13.1883C13.546 12.3189 14.2338 11.6389 15.1109 11.1482C15.9879 10.6576 16.9423 10.408 18.0085 10.408C19.0575 10.408 20.012 10.649 20.889 11.1482C21.766 11.6389 22.4539 12.3189 22.9698 13.1883C23.4771 14.0577 23.7351 15.039 23.7351 16.1322C23.7351 17.2254 23.4857 18.1981 22.9698 19.0675C22.4539 19.9455 21.766 20.6255 20.889 21.1075C20.5967 21.2797 20.2785 21.4088 19.9604 21.5207V25.5836C21.0266 25.377 22.0498 25.0069 23.0042 24.4732C24.5347 23.6124 25.7471 22.4417 26.6499 20.9698C27.5528 19.4892 27.9999 17.8796 27.9999 16.1322C28.0085 14.3762 27.5614 12.7493 26.6585 11.286Z" fill="white"/>
</g>
<mask id="mask0_2_316" style="mask-type:alpha" maskUnits="userSpaceOnUse" x="0" y="0" width="36" height="36">
<path d="M0 8C0 3.58172 3.58172 0 8 0H28C32.4183 0 36 3.58172 36 8V28C36 32.4183 32.4183 36 28 36H8C3.58172 36 0 32.4183 0 28V8Z" fill="#355DEE"/>
</mask>
<g mask="url(#mask0_2_316)">
<g filter="url(#filter0_d_2_316)">
<path d="M7 4C7 2.89543 7.89543 2 9 2L38 2V12L9 12C7.89543 12 7 11.1046 7 10L7 4Z" fill="#A459B3" shape-rendering="crispEdges"/>
<path d="M11.4533 10V9.23909H13.2182C13.6283 9.23909 13.9387 9.15454 14.1492 8.98545C14.3596 8.81635 14.4649 8.57103 14.4649 8.24948V8.24116C14.4649 8.02495 14.4163 7.84477 14.3192 7.70062C14.222 7.55648 14.0763 7.44837 13.882 7.3763C13.6904 7.30146 13.4516 7.26403 13.1656 7.26403H11.4533V6.55301H12.9834C13.3855 6.55301 13.6891 6.47817 13.8942 6.32848C14.0992 6.17602 14.2018 5.95426 14.2018 5.6632V5.65489C14.2018 5.37214 14.1087 5.15315 13.9225 4.99792C13.7363 4.83992 13.4745 4.76091 13.1372 4.76091H11.4533V4H13.3518C13.716 4 14.0291 4.06098 14.2908 4.18295C14.5553 4.30492 14.7577 4.47817 14.898 4.7027C15.0383 4.92446 15.1085 5.1878 15.1085 5.49272V5.50104C15.1085 5.71171 15.0626 5.90852 14.9709 6.09148C14.8791 6.27166 14.7563 6.42412 14.6025 6.54886C14.4487 6.6736 14.2746 6.7526 14.0803 6.78586V6.85655C14.3448 6.88427 14.5755 6.96327 14.7725 7.09356C14.9695 7.22384 15.1233 7.39293 15.234 7.60083C15.3446 7.80596 15.3999 8.03881 15.3999 8.29938V8.30769C15.3999 8.65696 15.319 8.95911 15.1571 9.21414C14.9978 9.46639 14.7698 9.66043 14.473 9.79626C14.1761 9.93209 13.8199 10 13.4044 10H11.4533ZM11 10V4H11.9067V10H11Z" fill="white"/>
<path d="M16.5616 10V4L20.2694 4V4.80665L17.4683 4.80665V6.55717H20.1196V7.33056H17.4683V9.19335H20.2694V10H16.5616Z" fill="white"/>
<path d="M23.0623 10V4.80665H21.2247V4H25.8067V4.80665H23.969V10H23.0623Z" fill="white"/>
<path d="M25.8027 10L27.9116 4H28.6442V5.05198H28.369L26.7579 10H25.8027ZM26.8187 8.37838L27.0737 7.62994H29.7331L29.9881 8.37838H26.8187ZM30.0447 10L28.4378 5.05198V4H28.8952L31 10H30.0447Z" fill="white"/>
</g>
</g>
<defs>
<filter id="filter0_d_2_316" x="4" y="1" width="35" height="14" filterUnits="userSpaceOnUse" color-interpolation-filters="sRGB">
<feFlood flood-opacity="0" result="BackgroundImageFix"/>
<feColorMatrix in="SourceAlpha" type="matrix" values="0 0 0 0 0 0 0 0 0 0 0 0 0 0 0 0 0 0 127 0" result="hardAlpha"/>
<feOffset dx="-1" dy="1"/>
<feGaussianBlur stdDeviation="1"/>
<feComposite in2="hardAlpha" operator="out"/>
<feColorMatrix type="matrix" values="0 0 0 0 0 0 0 0 0 0 0 0 0 0 0 0 0 0 0.08 0"/>
<feBlend mode="normal" in2="BackgroundImageFix" result="effect1_dropShadow_2_316"/>
<feBlend mode="normal" in="SourceGraphic" in2="effect1_dropShadow_2_316" result="shape"/>
</filter>
<clipPath id="clip0_2_316">
<rect width="36" height="36" rx="8" fill="white"/>
</clipPath>
</defs>
</svg>
